<?xml version="1.0" encoding="UTF-8" standalone="no"?>
<!-- Created with Inkscape (http://www.inkscape.org/) -->

<svg
   xmlns:dc="http://purl.org/dc/elements/1.1/"
   xmlns:cc="http://creativecommons.org/ns#"
   xmlns:rdf="http://www.w3.org/1999/02/22-rdf-syntax-ns#"
   xmlns:svg="http://www.w3.org/2000/svg"
   xmlns="http://www.w3.org/2000/svg"
   xmlns:sodipodi="http://sodipodi.sourceforge.net/DTD/sodipodi-0.dtd"
   xmlns:inkscape="http://www.inkscape.org/namespaces/inkscape"
   width="744.09448819"
   height="1052.3622047"
   id="svg3758"
   version="1.1"
   inkscape:version="0.48.3.1 r9886"
   sodipodi:docname="fee.svg">
  <defs
     id="defs3760">
    <filter
       color-interpolation-filters="sRGB"
       inkscape:collect="always"
       id="filter3952"
       x="-0.1196366"
       width="1.2392732"
       y="-0.6274569"
       height="2.2549138">
      <feGaussianBlur
         inkscape:collect="always"
         stdDeviation="2.153169"
         id="feGaussianBlur3954" />
    </filter>
    <filter
       color-interpolation-filters="sRGB"
       id="filter4011"
       inkscape:collect="always">
      <feGaussianBlur
         id="feGaussianBlur4013"
         stdDeviation="0.21832283"
         inkscape:collect="always" />
    </filter>
  </defs>
  <sodipodi:namedview
     id="base"
     pagecolor="#ffffff"
     bordercolor="#666666"
     borderopacity="1.0"
     inkscape:pageopacity="0.0"
     inkscape:pageshadow="2"
     inkscape:zoom="0.7"
     inkscape:cx="266.69813"
     inkscape:cy="644.09651"
     inkscape:document-units="px"
     inkscape:current-layer="layer1"
     showgrid="false"
     showguides="true"
     inkscape:guide-bbox="true"
     inkscape:window-width="1280"
     inkscape:window-height="744"
     inkscape:window-x="0"
     inkscape:window-y="27"
     inkscape:window-maximized="1" />
  <metadata
     id="metadata3763">
    <rdf:RDF>
      <cc:Work
         rdf:about="">
        <dc:format>image/svg+xml</dc:format>
        <dc:type
           rdf:resource="http://purl.org/dc/dcmitype/StillImage" />
        <dc:title />
      </cc:Work>
    </rdf:RDF>
  </metadata>
  <g
     inkscape:label="Layer 1"
     inkscape:groupmode="layer"
     id="layer1">
    <text
       xml:space="preserve"
       style="font-size:14px;font-style:normal;font-variant:normal;font-weight:normal;font-stretch:normal;text-align:end;line-height:125%;letter-spacing:0px;word-spacing:0px;text-anchor:end;fill:#000000;fill-opacity:1;stroke:none;font-family:Ubuntu;-inkscape-font-specification:Ubuntu"
       x="101.01525"
       y="605.87476"
       id="text5988"
       sodipodi:linespacing="125%"><tspan
         sodipodi:role="line"
         id="tspan5990" /></text>
    <text
       xml:space="preserve"
       style="font-size:12px;font-style:normal;font-variant:normal;font-weight:normal;font-stretch:normal;text-align:start;line-height:125%;letter-spacing:0px;word-spacing:0px;text-anchor:start;fill:#555753;fill-opacity:1;stroke:none;font-family:Red October;-inkscape-font-specification:Red October"
       x="186.98666"
       y="80.823143"
       id="text4430"
       sodipodi:linespacing="125%"
       inkscape:export-filename="/home/glic3rinu/Dropbox/Marc/UCP/fee.png"
       inkscape:export-xdpi="90"
       inkscape:export-ydpi="90"><tspan
         sodipodi:role="line"
         id="tspan4432"
         x="186.98666"
         y="80.823143" /><tspan
         sodipodi:role="line"
         x="186.98666"
         y="96.029251"
         id="tspan4434"
         style="font-size:12px;fill:#555753;font-family:ubuntu;-inkscape-font-specification:ubuntu">ES32342423</tspan><tspan
         sodipodi:role="line"
         x="186.98666"
         y="111.02925"
         style="font-size:12px;fill:#555753;font-family:ubuntu;-inkscape-font-specification:ubuntu"
         id="tspan5044">Pl. eusebi guell 6-7</tspan><tspan
         sodipodi:role="line"
         x="186.98666"
         y="126.02925"
         id="tspan4436"
         style="font-size:12px;fill:#555753;font-family:ubuntu;-inkscape-font-specification:ubuntu">Edifici vertex, planta 0</tspan><tspan
         sodipodi:role="line"
         x="186.98666"
         y="141.02925"
         id="tspan4438"
         style="font-size:12px;fill:#555753;font-family:ubuntu;-inkscape-font-specification:ubuntu">08034 - Barcelona</tspan><tspan
         sodipodi:role="line"
         x="186.98666"
         y="156.02925"
         style="font-size:12px;fill:#555753;font-family:ubuntu;-inkscape-font-specification:ubuntu"
         id="tspan5089" /><tspan
         sodipodi:role="line"
         x="186.98666"
         y="171.02925"
         id="tspan4440"
         style="font-size:12px;fill:#555753;font-family:ubuntu;-inkscape-font-specification:ubuntu">934015664</tspan><tspan
         sodipodi:role="line"
         x="186.98666"
         y="186.02925"
         id="tspan4442"
         style="font-size:12px;fill:#555753;font-family:ubuntu;-inkscape-font-specification:ubuntu">suport@pangea.org</tspan><tspan
         sodipodi:role="line"
         x="186.98666"
         y="201.02925"
         style="font-size:12px;fill:#555753;font-family:ubuntu;-inkscape-font-specification:ubuntu"
         id="tspan5091">pangea.org </tspan></text>
    <text
       xml:space="preserve"
       style="font-size:15px;font-style:normal;font-variant:normal;font-weight:bold;font-stretch:normal;text-align:end;line-height:125%;letter-spacing:0px;word-spacing:0px;text-anchor:end;fill:#95aa00;fill-opacity:1;stroke:none;font-family:Red October;-inkscape-font-specification:Ubuntu Bold"
       x="186.74065"
       y="80.705566"
       id="text4584"
       sodipodi:linespacing="125%"
       inkscape:export-filename="/home/glic3rinu/Dropbox/Marc/UCP/fee.png"
       inkscape:export-xdpi="90"
       inkscape:export-ydpi="90"><tspan
         sodipodi:role="line"
         id="tspan4586"
         x="186.74065"
         y="80.705566"
         style="font-size:14px;font-style:normal;font-variant:normal;font-weight:bold;font-stretch:normal;text-align:start;text-anchor:start;fill:#95aa00;fill-opacity:1;font-family:Ubuntu;-inkscape-font-specification:Ubuntu Bold">Coordinadora Cooperacio per a la Comunicacio Pangea</tspan></text>
    <text
       xml:space="preserve"
       style="font-size:13px;font-style:normal;font-variant:normal;font-weight:bold;font-stretch:normal;text-align:start;line-height:125%;letter-spacing:0px;word-spacing:0px;text-anchor:start;fill:#2e3436;fill-opacity:1;stroke:none;font-family:ubuntu;-inkscape-font-specification:Ubuntu Bold"
       x="383.78418"
       y="257.35651"
       id="text4446"
       sodipodi:linespacing="125%"
       inkscape:export-filename="/home/glic3rinu/Dropbox/Marc/UCP/fee.png"
       inkscape:export-xdpi="90"
       inkscape:export-ydpi="90"><tspan
         sodipodi:role="line"
         id="tspan4448"
         x="383.78418"
         y="257.35651"
         style="font-size:13px;font-weight:bold;fill:#2e3436;font-family:Ubuntu;-inkscape-font-specification:Ubuntu Bold">El petit monstre</tspan><tspan
         sodipodi:role="line"
         x="383.78418"
         y="273.60651"
         style="font-size:13px;font-weight:bold;fill:#2e3436;font-family:Ubuntu;-inkscape-font-specification:Ubuntu Bold"
         id="tspan4824">ES83229101</tspan><tspan
         sodipodi:role="line"
         x="383.78418"
         y="289.85651"
         id="tspan4450"
         style="font-size:13px;font-weight:bold;fill:#2e3436;font-family:Ubuntu;-inkscape-font-specification:Ubuntu Bold">c/ yoquese, 43</tspan><tspan
         sodipodi:role="line"
         x="383.78418"
         y="306.10651"
         id="tspan4452"
         style="font-size:13px;font-weight:bold;fill:#2e3436;font-family:Ubuntu;-inkscape-font-specification:Ubuntu Bold">08034 - barcelona</tspan></text>
    <g
       id="g5902"
       transform="translate(18.182746,9.9390847)"
       inkscape:export-filename="/home/glic3rinu/Dropbox/Marc/UCP/fee.png"
       inkscape:export-xdpi="90"
       inkscape:export-ydpi="90">
      <text
         sodipodi:linespacing="125%"
         id="text4811"
         y="375.90149"
         x="29.362614"
         style="font-size:30px;font-style:normal;font-variant:normal;font-weight:bold;font-stretch:normal;text-align:start;line-height:125%;letter-spacing:0px;word-spacing:0px;text-anchor:start;fill:#555753;fill-opacity:1;stroke:none;font-family:Ubuntu;-inkscape-font-specification:Ubuntu Bold"
         xml:space="preserve"><tspan
           y="375.90149"
           x="29.362614"
           id="tspan4813"
           sodipodi:role="line">Membership Fee</tspan></text>
      <text
         sodipodi:linespacing="125%"
         id="text4364"
         y="408.53485"
         x="269.69263"
         style="font-size:30px;font-style:normal;font-variant:normal;font-weight:bold;font-stretch:normal;text-align:end;line-height:125%;letter-spacing:0px;word-spacing:0px;text-anchor:end;fill:#a7c609;fill-opacity:1;stroke:none;font-family:Ubuntu;-inkscape-font-specification:Ubuntu Bold"
         xml:space="preserve"><tspan
           style="font-size:30px;font-weight:bold;fill:#a7c609;fill-opacity:1;font-family:Ubuntu;-inkscape-font-specification:Ubuntu Bold"
           y="408.53485"
           x="269.69263"
           id="tspan4366"
           sodipodi:role="line">Q20110231</tspan></text>
      <text
         sodipodi:linespacing="125%"
         id="text4836"
         y="431.4599"
         x="267.37759"
         style="font-size:16px;font-style:normal;font-variant:normal;font-weight:bold;font-stretch:normal;text-align:end;line-height:125%;letter-spacing:0px;word-spacing:0px;text-anchor:end;fill:#2e3436;fill-opacity:1;stroke:none;font-family:Ubuntu;-inkscape-font-specification:Ubuntu Bold"
         xml:space="preserve"><tspan
           y="431.4599"
           x="267.37759"
           id="tspan4838"
           sodipodi:role="line">Nov 20, 2011</tspan></text>
    </g>
    <g
       id="g6402"
       transform="translate(2.0356207,0)"
       inkscape:export-filename="/home/glic3rinu/Dropbox/Marc/UCP/fee.png"
       inkscape:export-xdpi="90"
       inkscape:export-ydpi="90">
      <rect
         y="365.03348"
         x="374.19055"
         height="88.475029"
         width="319.20825"
         id="rect4840"
         style="color:#000000;fill:#a7c609;fill-opacity:1;fill-rule:nonzero;stroke:none;stroke-width:1.5;marker:none;visibility:visible;display:inline;overflow:visible;enable-background:accumulate" />
      <g
         transform="translate(0,5.9538701)"
         id="g6385">
        <text
           xml:space="preserve"
           style="font-size:30px;font-style:normal;font-variant:normal;font-weight:bold;font-stretch:normal;text-align:end;line-height:125%;letter-spacing:0px;word-spacing:0px;text-anchor:end;fill:#ffffff;fill-opacity:1;stroke:none;font-family:Ubuntu;-inkscape-font-specification:Ubuntu Bold"
           x="519.57629"
           y="395.4035"
           id="text5678"
           sodipodi:linespacing="125%"><tspan
             sodipodi:role="line"
             id="tspan5680"
             x="519.57629"
             y="395.4035"
             style="font-size:30px;font-weight:bold;fill:#ffffff;fill-opacity:1;-inkscape-font-specification:Ubuntu Bold">€ 1342,34</tspan></text>
        <text
           xml:space="preserve"
           style="font-size:14px;font-style:normal;font-variant:normal;font-weight:bold;font-stretch:normal;text-align:start;line-height:125%;letter-spacing:0px;word-spacing:0px;text-anchor:start;fill:#000000;fill-opacity:1;stroke:none;font-family:Ubuntu;-inkscape-font-specification:Ubuntu Bold"
           x="384.61609"
           y="414.79074"
           id="text5861"
           sodipodi:linespacing="125%"><tspan
             sodipodi:role="line"
             id="tspan5863"
             x="384.61609"
             y="414.79074"
             style="font-weight:normal;fill:#ffffff;fill-opacity:1;-inkscape-font-specification:Ubuntu">To pay before Oct 20, 2011</tspan><tspan
             sodipodi:role="line"
             x="384.61609"
             y="432.29074"
             id="tspan5865"
             style="font-weight:normal;fill:#ffffff;fill-opacity:1;-inkscape-font-specification:Ubuntu">on 232.2323.23.23233</tspan></text>
      </g>
    </g>
    <rect
       style="color:#000000;fill:#a7c609;fill-opacity:1;fill-rule:nonzero;stroke:none;stroke-width:1.5;marker:none;visibility:visible;display:inline;overflow:visible;enable-background:accumulate"
       id="rect5891"
       width="648.51794"
       height="3.8165066"
       x="46.467018"
       y="900.83136"
       inkscape:export-filename="/home/glic3rinu/Dropbox/Marc/UCP/fee.png"
       inkscape:export-xdpi="90"
       inkscape:export-ydpi="90" />
    <text
       xml:space="preserve"
       style="font-size:12px;font-style:normal;font-variant:normal;font-weight:normal;font-stretch:normal;text-align:start;line-height:125%;letter-spacing:0px;word-spacing:0px;text-anchor:start;fill:#000000;fill-opacity:1;stroke:none;font-family:Ubuntu;-inkscape-font-specification:Ubuntu"
       x="72.314011"
       y="929.09534"
       id="text5910"
       sodipodi:linespacing="125%"
       inkscape:export-filename="/home/glic3rinu/Dropbox/Marc/UCP/fee.png"
       inkscape:export-xdpi="90"
       inkscape:export-ydpi="90"><tspan
         sodipodi:role="line"
         x="72.314011"
         y="929.09534"
         id="tspan5932"
         style="font-size:12px;fill:#a7c609;fill-opacity:1">Coor. Com. per a la Coop. Pangea</tspan><tspan
         sodipodi:role="line"
         x="72.314011"
         y="944.09534"
         id="tspan5920"
         style="fill:#2e3436">Pl. Eusebi Guell 5-6 </tspan><tspan
         sodipodi:role="line"
         x="72.314011"
         y="959.09534"
         id="tspan5934"
         style="fill:#2e3436">Edifici Vertex Planta 0</tspan><tspan
         sodipodi:role="line"
         x="72.314011"
         y="974.09534"
         id="tspan5926"
         style="fill:#2e3436">08034 - Barcelona - Spain</tspan><tspan
         sodipodi:role="line"
         x="72.314011"
         y="989.09534"
         id="tspan5922"
         style="fill:#2e3436" /></text>
    <text
       xml:space="preserve"
       style="font-size:12px;font-style:normal;font-variant:normal;font-weight:normal;font-stretch:normal;text-align:start;line-height:125%;letter-spacing:0px;word-spacing:0px;text-anchor:start;fill:#a7c609;fill-opacity:1;stroke:none;font-family:Ubuntu;-inkscape-font-specification:Ubuntu"
       x="285.79263"
       y="929.11932"
       id="text5936"
       sodipodi:linespacing="125%"
       inkscape:export-filename="/home/glic3rinu/Dropbox/Marc/UCP/fee.png"
       inkscape:export-xdpi="90"
       inkscape:export-ydpi="90"><tspan
         sodipodi:role="line"
         id="tspan5938"
         x="285.79263"
         y="929.11932">Tel <tspan
   style="fill:#2e3436"
   id="tspan5984">(+34)</tspan><tspan
   style="font-size:12px;fill:#2e3436"
   id="tspan5946">934015664 </tspan></tspan><tspan
         sodipodi:role="line"
         x="285.79263"
         y="944.11932"
         id="tspan5940">Fax<tspan
   style="fill:#2e3436"
   id="tspan5986"> (+34)</tspan><tspan
   style="font-size:12px;fill:#2e3436"
   id="tspan5948">934015664</tspan></tspan><tspan
         sodipodi:role="line"
         x="285.79263"
         y="959.11932"
         id="tspan5942">Email <tspan
   style="font-size:12px;fill:#2e3436"
   id="tspan5950">suport@pangea.org</tspan></tspan><tspan
         sodipodi:role="line"
         x="285.79263"
         y="974.11932"
         id="tspan5944">Web <tspan
   style="font-size:12px;fill:#2e3436"
   id="tspan5952">pangea.org</tspan></tspan></text>
    <text
       xml:space="preserve"
       style="font-size:12px;font-style:normal;font-variant:normal;font-weight:normal;font-stretch:normal;text-align:start;line-height:125%;letter-spacing:0px;word-spacing:0px;text-anchor:start;fill:#a7c609;fill-opacity:1;stroke:none;font-family:Ubuntu;-inkscape-font-specification:Ubuntu"
       x="498.02325"
       y="929.71332"
       id="text5956"
       sodipodi:linespacing="125%"
       inkscape:export-filename="/home/glic3rinu/Dropbox/Marc/UCP/fee.png"
       inkscape:export-xdpi="90"
       inkscape:export-ydpi="90"><tspan
         sodipodi:role="line"
         id="tspan5958"
         x="498.02325"
         y="929.71332">NIF <tspan
   style="font-size:12px;fill:#2e3436"
   id="tspan5974">G23324134</tspan></tspan><tspan
         sodipodi:role="line"
         x="498.02325"
         y="944.71332"
         id="tspan5966">Bank <tspan
   style="font-size:12px;fill:#2e3436"
   id="tspan5978">2232.2323.23.23213</tspan></tspan><tspan
         sodipodi:role="line"
         x="498.02325"
         y="959.71332"
         id="tspan5970">IBAN <tspan
   style="font-size:12px;fill:#2e3436"
   id="tspan5980">23123.232322.2321.3.123</tspan></tspan><tspan
         sodipodi:role="line"
         x="498.02325"
         y="974.71332"
         id="tspan5972">BIC <tspan
   style="font-size:12px;fill:#2e3436"
   id="tspan5982">2313.21323</tspan></tspan><tspan
         sodipodi:role="line"
         x="498.02325"
         y="989.71332"
         id="tspan5964" /><tspan
         sodipodi:role="line"
         x="498.02325"
         y="1004.7133"
         id="tspan5962" /></text>
    <text
       xml:space="preserve"
       style="font-size:13px;font-style:normal;font-variant:normal;font-weight:normal;font-stretch:normal;text-align:end;line-height:125%;letter-spacing:0px;word-spacing:0px;text-anchor:end;fill:#000000;fill-opacity:1;stroke:none;font-family:Ubuntu;-inkscape-font-specification:Ubuntu"
       x="691.66791"
       y="594.23517"
       id="text5996"
       sodipodi:linespacing="125%"
       inkscape:export-filename="/home/glic3rinu/Dropbox/Marc/UCP/fee.png"
       inkscape:export-xdpi="90"
       inkscape:export-ydpi="90"><tspan
         sodipodi:role="line"
         x="694.664"
         y="594.23517"
         id="tspan6016"><tspan
   style="font-weight:bold;fill:#a7c609;fill-opacity:1;-inkscape-font-specification:Ubuntu Bold"
   id="tspan6138">Con vuestras cuotas</tspan>, además de obtener conexión y multitud de servicios, estáis apoyando un proyecto </tspan><tspan
         sodipodi:role="line"
         x="694.664"
         y="610.48517"
         id="tspan6020">solidario de comunicación tanto en nuestro país como en otros: Colombia, México, Perú, ... </tspan><tspan
         sodipodi:role="line"
         x="694.664"
         y="626.73517"
         id="tspan6022">Pangea forma parte de la Asociación para el Progreso de las Comunicaciones (APC) </tspan><tspan
         sodipodi:role="line"
         x="694.664"
         y="642.98517"
         id="tspan6024">con nodos asociados en más de 60 países, trabajando para </tspan><tspan
         sodipodi:role="line"
         x="691.66791"
         y="659.23517"
         id="tspan6040">fomentar la cooperación y la solidaridad.</tspan><tspan
         sodipodi:role="line"
         x="691.66791"
         y="675.48517"
         id="tspan6000" /><tspan
         sodipodi:role="line"
         x="691.66791"
         y="691.73517"
         id="tspan6018" /><tspan
         sodipodi:role="line"
         x="691.66791"
         y="707.98517"
         id="tspan6002" /></text>
    <text
       xml:space="preserve"
       style="font-size:11px;font-style:normal;font-variant:normal;font-weight:normal;font-stretch:normal;text-align:start;line-height:125%;letter-spacing:0px;word-spacing:0px;text-anchor:start;fill:#000000;fill-opacity:1;stroke:none;font-family:Ubuntu;-inkscape-font-specification:Ubuntu"
       x="375.94019"
       y="782.27478"
       id="text4998"
       sodipodi:linespacing="125%"
       inkscape:export-filename="/home/glic3rinu/Dropbox/Marc/UCP/fee.png"
       inkscape:export-xdpi="90"
       inkscape:export-ydpi="90"><tspan
         sodipodi:role="line"
         x="375.94019"
         y="782.27478"
         style="font-size:11px;font-weight:bold;text-align:start;text-anchor:start;fill:#000000;fill-opacity:1;-inkscape-font-specification:Ubuntu Bold"
         id="tspan5013"><tspan
           style="font-size:11px;fill:#a7c609;fill-opacity:1"
           id="tspan5031">PAYMENT</tspan><tspan
           style="font-size:11px;font-weight:normal;fill:#2e3436;fill-opacity:1;-inkscape-font-specification:Ubuntu"
           id="tspan5008"> You can pay our invoice by bank transfer. </tspan></tspan><tspan
         sodipodi:role="line"
         x="375.94019"
         y="796.02478"
         style="font-size:11px;font-weight:normal;text-align:start;text-anchor:start;fill:#2e3436;fill-opacity:1;-inkscape-font-specification:Ubuntu"
         id="tspan5019">Please make sure to state your name and the invoice number. </tspan><tspan
         sodipodi:role="line"
         x="375.94019"
         y="809.77478"
         style="font-size:11px;font-weight:normal;text-align:start;text-anchor:start;fill:#2e3436;fill-opacity:1;-inkscape-font-specification:Ubuntu"
         id="tspan5025">Our bank account number is </tspan><tspan
         sodipodi:role="line"
         x="375.94019"
         y="823.52478"
         style="font-size:11px;font-weight:bold;text-align:start;text-anchor:start;fill:#2e3436;fill-opacity:1;-inkscape-font-specification:Ubuntu Bold"
         id="tspan4815">3432.323.23.23123 (Caixa d'Enginyers).</tspan></text>
    <text
       xml:space="preserve"
       style="font-size:11px;font-style:normal;font-variant:normal;font-weight:normal;font-stretch:normal;text-align:start;line-height:125%;letter-spacing:0px;word-spacing:0px;text-anchor:start;fill:#000000;fill-opacity:1;stroke:none;font-family:Ubuntu;-inkscape-font-specification:Ubuntu"
       x="48.755917"
       y="782.27478"
       id="text4998-6"
       sodipodi:linespacing="125%"
       inkscape:export-filename="/home/glic3rinu/Dropbox/Marc/UCP/fee.png"
       inkscape:export-xdpi="90"
       inkscape:export-ydpi="90"><tspan
         sodipodi:role="line"
         x="48.755917"
         y="782.27478"
         style="font-size:11px;font-weight:normal;text-align:start;text-anchor:start;fill:#000000;fill-opacity:1;-inkscape-font-specification:Ubuntu"
         id="tspan5013-2"><tspan
           style="font-size:11px;font-weight:bold;fill:#a7c609;fill-opacity:1;-inkscape-font-specification:Ubuntu Bold"
           id="tspan5071">COMMENTS</tspan><tspan
           style="font-size:11px;fill:#2e3436"
           id="tspan4868"> The comments should be there.</tspan></tspan><tspan
         sodipodi:role="line"
         x="48.755917"
         y="796.02478"
         style="font-size:11px;font-weight:normal;text-align:start;text-anchor:start;fill:#2e3436;fill-opacity:1;-inkscape-font-specification:Ubuntu"
         id="tspan5080" /><tspan
         sodipodi:role="line"
         x="48.755917"
         y="809.77478"
         style="font-size:11px;font-weight:normal;text-align:start;text-anchor:start;fill:#000000;fill-opacity:1;-inkscape-font-specification:Ubuntu"
         id="tspan5025-5" /></text>
    <text
       xml:space="preserve"
       style="font-size:11px;font-style:normal;font-variant:normal;font-weight:normal;font-stretch:normal;text-align:start;line-height:125%;letter-spacing:0px;word-spacing:0px;text-anchor:start;fill:#000000;fill-opacity:1;stroke:none;font-family:Ubuntu;-inkscape-font-specification:Ubuntu"
       x="375.76419"
       y="846.27478"
       id="text4998-60"
       sodipodi:linespacing="125%"
       inkscape:export-filename="/home/glic3rinu/Dropbox/Marc/UCP/fee.png"
       inkscape:export-xdpi="90"
       inkscape:export-ydpi="90"><tspan
         sodipodi:role="line"
         x="375.76419"
         y="846.27478"
         style="font-size:11px;font-weight:normal;text-align:start;text-anchor:start;fill:#2e3436;fill-opacity:1;-inkscape-font-specification:Ubuntu"
         id="tspan4815-5"><tspan
   style="font-size:11px;font-weight:bold;fill:#a7c609;fill-opacity:1;-inkscape-font-specification:Ubuntu Bold"
   id="tspan5056">QUESTIONS</tspan> If you have any question about your bill, please </tspan><tspan
         sodipodi:role="line"
         x="375.76419"
         y="860.02478"
         style="font-size:11px;font-weight:normal;text-align:start;text-anchor:start;fill:#2e3436;fill-opacity:1;-inkscape-font-specification:Ubuntu"
         id="tspan5094">feel free to contact us at your convenience. We will reply as </tspan><tspan
         sodipodi:role="line"
         x="375.76419"
         y="873.77478"
         style="font-size:11px;font-weight:normal;text-align:start;text-anchor:start;fill:#2e3436;fill-opacity:1;-inkscape-font-specification:Ubuntu"
         id="tspan5098">soon as we get your message. </tspan></text>
    <text
       xml:space="preserve"
       style="font-size:14px;font-style:normal;font-variant:normal;font-weight:normal;font-stretch:normal;text-align:start;line-height:125%;letter-spacing:0px;word-spacing:0px;text-anchor:start;fill:#555753;fill-opacity:1;stroke:none;font-family:Ubuntu;-inkscape-font-specification:Ubuntu"
       x="384.99619"
       y="474.64789"
       id="text6392"
       sodipodi:linespacing="125%"
       inkscape:export-filename="/home/glic3rinu/Dropbox/Marc/UCP/fee.png"
       inkscape:export-xdpi="90"
       inkscape:export-ydpi="90"><tspan
         sodipodi:role="line"
         id="tspan6394"
         x="384.99619"
         y="474.64789"
         style="font-size:15px;font-weight:bold;fill:#555753;-inkscape-font-specification:Ubuntu Bold"><tspan
   style="font-weight:normal;-inkscape-font-specification:Ubuntu"
   id="tspan6396">from</tspan> Apr 1, 2010 <tspan
   style="font-weight:normal;-inkscape-font-specification:Ubuntu"
   id="tspan6398">to</tspan> Apr 1, 2011</tspan></text>
    <g
       id="g6673"
       transform="translate(-28.565428,24.349054)"
       inkscape:export-filename="/home/glic3rinu/Dropbox/Marc/UCP/fee.png"
       inkscape:export-xdpi="90"
       inkscape:export-ydpi="90">
      <path
         sodipodi:nodetypes="cccccccssccc"
         id="rect10038-5-4-4-8"
         d="m 124.85255,129.94343 c 17.02936,-0.94912 34.1396,-3.78785 52.7461,-4.11948 1.16301,0.10146 1.80739,0.47689 2.2256,1.50682 l 7.72659,10.53402 c 0.49215,0.72875 0.42936,1.75951 -1.08994,2.22459 l -40.75517,3.20334 -9.0992,1.17627 c 0,0 -2.07376,0.32999 -3.54972,0.16933 -0.53579,-0.0583 -0.96435,-0.16842 -1.302,-0.22915 -0.78609,-0.14141 -1.25945,-1.4968 -1.51137,-1.82341 -1.92614,-3.43072 -3.56728,-7.30986 -6.01104,-11.08491 -0.32155,-1.24221 -0.0569,-1.51345 0.62015,-1.55742 z"
         style="color:#000000;fill:#987c00;fill-opacity:1;fill-rule:nonzero;stroke:#2e3436;stroke-width:2.78500009;stroke-linecap:butt;stroke-linejoin:miter;stroke-miterlimit:4;stroke-opacity:1;stroke-dasharray:none;stroke-dashoffset:0;marker:none;visibility:visible;display:inline;overflow:visible;enable-background:accumulate"
         inkscape:connector-curvature="0" />
      <path
         sodipodi:nodetypes="cccccccssccc"
         id="rect10038-5-4-4-2-2"
         d="m 125.62997,130.76312 c 15.94417,-0.73217 33.83547,-3.80269 51.25628,-4.05851 1.14393,-0.0318 1.91238,-0.0725 2.19385,1.10735 l 5.88382,9.04064 c -0.70614,0.19769 -0.72031,0.13867 -1.35424,0.22763 l -39.24377,3.36121 -6.25188,0.99232 c -0.24303,-0.0742 -1.94161,0.25456 -3.32352,0.13062 -0.50164,-0.045 -0.90289,-0.12991 -1.21903,-0.17677 -0.73599,-0.10908 -1.17919,-1.15466 -1.41505,-1.40661 -1.8034,-2.64654 -3.44303,-5.21439 -5.73106,-8.12653 -1.14043,-1.06836 -1.42934,-1.05743 -0.7954,-1.09135 z"
         style="color:#000000;fill:#edd400;fill-opacity:1;fill-rule:nonzero;stroke:none;stroke-width:1.68499994;marker:none;visibility:visible;display:inline;overflow:visible;enable-background:accumulate"
         inkscape:connector-curvature="0" />
      <path
         inkscape:connector-curvature="0"
         style="color:#000000;fill:#d8d395;fill-opacity:1;fill-rule:evenodd;stroke:none;stroke-width:0.30000001;marker:none;visibility:visible;display:inline;overflow:visible;enable-background:accumulate"
         d="m 114.85232,109.15427 9.18512,9.96351 0.0389,10.64462 -9.22404,-9.86622 c -0.31755,-3.58063 -0.41365,-7.16127 0,-10.74191 z"
         id="rect4513-5-9"
         sodipodi:nodetypes="ccccc" />
      <path
         inkscape:connector-curvature="0"
         style="color:#000000;fill:#dcd699;fill-opacity:1;fill-rule:evenodd;stroke:none;stroke-width:0.30000001;marker:none;visibility:visible;display:inline;overflow:visible;enable-background:accumulate"
         d="m 124.22635,119.17248 54.955,-4.6704 c 0.44329,3.67651 0.43737,7.20328 0,10.58623 l -54.955,4.6704 0,-10.58623 z"
         id="rect4488-7-9"
         sodipodi:nodetypes="ccccc" />
      <path
         inkscape:connector-curvature="0"
         style="color:#000000;fill:#edd400;fill-opacity:1;fill-rule:evenodd;stroke:none;stroke-width:0.30000001;marker:none;visibility:visible;display:inline;overflow:visible;enable-background:accumulate"
         d="m 124.01115,119.08739 55.1702,-4.58531 c 0.44329,3.67651 0.43737,7.20328 0,10.58623 l -55.11068,3.93092 z"
         id="rect4488-60"
         sodipodi:nodetypes="ccccc" />
      <path
         inkscape:connector-curvature="0"
         style="color:#000000;fill:#edd400;fill-opacity:1;fill-rule:evenodd;stroke:none;stroke-width:0;marker:none;visibility:visible;display:inline;overflow:visible;enable-background:accumulate"
         d="m 115.39666,109.75788 c 18.24338,-1.90694 36.23377,-3.20924 54.47714,-4.39462 3.46575,2.45378 6.68405,5.51319 9.27268,9.13646 l -55.10428,4.59952 z"
         id="rect4488-6-2"
         sodipodi:nodetypes="ccccc" />
      <path
         inkscape:connector-curvature="0"
         style="color:#000000;fill:#a28400;fill-opacity:1;fill-rule:evenodd;stroke:none;stroke-width:0.30000001;marker:none;visibility:visible;display:inline;overflow:visible;enable-background:accumulate"
         d="m 114.85232,109.15427 9.18512,9.96351 0.0389,10.64462 -9.22404,-9.86622 c -0.31755,-3.58063 -0.41365,-7.16127 0,-10.74191 z"
         id="rect4513-7"
         sodipodi:nodetypes="ccccc" />
      <path
         style="color:#000000;fill:#2a1c0a;fill-opacity:1;fill-rule:evenodd;stroke:none;stroke-width:1;marker:none;visibility:visible;display:inline;overflow:visible;enable-background:accumulate"
         d="m 142.21936,131.63936 c 0.8869,-0.13454 1.7738,-0.26909 2.6607,-0.40363 0.20972,0.58585 0.41944,1.17169 0.62916,1.75754 -0.8869,0.13455 -1.7738,0.26909 -2.6607,0.40364 -0.20972,-0.58585 -0.41944,-1.1717 -0.62916,-1.75755 z"
         id="rect4030-6-3-6"
         inkscape:connector-curvature="0" />
      <path
         id="path4340-1"
         d="m 166.82497,110.05455 c 0.16338,2.06961 -9.3726,4.51059 -21.2992,5.45208 -11.92661,0.94149 -21.72747,0.027 -21.89084,-2.04264 -0.16338,-2.06961 9.3726,-4.51059 21.2992,-5.45208 11.9266,-0.94149 21.72747,-0.027 21.89084,2.04264 z"
         style="opacity:0.66829272;fill:#000000;fill-opacity:1;stroke:#000000;stroke-width:0.26614627;stroke-opacity:1;display:inline;filter:url(#filter3952)"
         inkscape:connector-curvature="0" />
      <path
         style="font-size:medium;font-style:normal;font-variant:normal;font-weight:normal;font-stretch:normal;text-indent:0;text-align:start;text-decoration:none;line-height:normal;letter-spacing:normal;word-spacing:normal;text-transform:none;direction:ltr;block-progression:tb;writing-mode:lr-tb;text-anchor:start;color:#000000;fill:#2e3436;fill-opacity:1;stroke:#2e3436;stroke-width:1.10000002;stroke-miterlimit:4;stroke-opacity:1;stroke-dasharray:none;marker:none;visibility:visible;display:inline;overflow:visible;enable-background:accumulate;font-family:Andale Mono;-inkscape-font-specification:Andale Mono"
         d="m 160.99783,104.2068 c -7.57149,0.13817 -21.36034,1.09488 -46.25,4.34375 l -0.26591,0.12088 -0.14034,0.25412 c -1.46874,5.762 0,11 0,11 l 0,0.0625 0.0312,0.0625 c 0,0 3.19079,5.93551 9.12614,10.19105 l 0.46761,0.0277 0.1875,-0.0312 55.15625,-4.71875 0.46875,-0.0312 0,-0.46875 c 0,0 -0.076,-6.76358 -0.007,-10.19959 0.004,-0.18863 0.003,-0.49585 -0.055,-0.67541 -0.0555,-0.17196 -0.11396,-0.37525 -0.2001,-0.53408 -3.59512,-6.6285 -9.38571,-8.79263 -9.4249,-8.80967 0,0 -0.0299,6.3e-4 -0.0312,0 -0.0196,-0.009 -0.15556,-0.0617 -0.40625,-0.125 -0.26841,-0.0678 -0.69076,-0.17235 -1.34375,-0.25 -1.30594,-0.15531 -3.52671,-0.28783 -7.31246,-0.21875 z m 0,1 c 3.75489,-0.0685 5.94783,0.0713 7.1875,0.21875 0.61984,0.0737 1.00384,0.16445 1.21875,0.21875 0.21492,0.0543 0.21875,0.0625 0.21875,0.0625 l 0.0312,0 c 0,0 5.61872,2.4588 9.0625,8.71875 l 0.0625,10.125 -54.5,4.65625 c -5.58352,-4.05845 -8.89833,-9.50856 -8.96875,-9.625 -0.0253,-0.0921 -1.29576,-4.78966 -0.0625,-10.0625 24.57083,-3.19665 38.28769,-4.17633 45.75,-4.3125 z"
         id="path4521-3"
         sodipodi:nodetypes="cccccccccccccssscsssccsscccccscc"
         inkscape:connector-curvature="0" />
      <path
         id="path4340-6-2"
         d="m 178.54453,79.242402 c 0,18.725408 -15.17994,33.905348 -33.90535,33.905348 -18.72541,0 -33.90535,-15.17994 -33.90535,-33.905348 0,-18.725406 15.17994,-33.905349 33.90535,-33.905349 18.72541,0 33.90535,15.179943 33.90535,33.905349 z"
         style="fill:#8bade8;fill-opacity:1;stroke:#000000;stroke-opacity:1;display:inline"
         inkscape:connector-curvature="0" />
      <path
         id="path4145-1"
         d="m 178.54452,79.242399 c 0,18.725411 -15.17994,33.905351 -33.90535,33.905351 -18.7254,0 -33.90534,-15.17994 -33.90534,-33.905351 0,-18.725406 15.17994,-33.90535 33.90534,-33.90535 18.72541,0 33.90535,15.179944 33.90535,33.90535 z"
         style="fill:none;stroke:#2e3436;stroke-width:2.20000005;stroke-miterlimit:4;stroke-opacity:1;stroke-dasharray:none"
         inkscape:connector-curvature="0" />
      <path
         sodipodi:nodetypes="cccccccsscccccscccccccccccccccccccc"
         id="path4374-9-5"
         d="m 166.65926,54.167861 c -1.11971,1.381197 -4.77368,1.870012 -6.94402,0.751123 -1.13779,-1.160852 -1.9157,-0.841034 -3.40221,-1.034867 -0.63071,0.190118 -1.64245,-0.537823 -1.63484,0.201792 0.0432,0.842693 -0.63029,2.092447 -0.1277,2.147662 0.88066,0.110082 1.15587,0.715534 2.03653,0.825616 -0.18347,1.100823 -0.0917,1.651235 -0.27521,2.752058 -0.8637,0.131752 -1.60608,-0.294346 -2.52244,0.02696 -0.33423,0.117193 -0.0188,1.080373 -0.36839,1.224391 -1.09433,0.45086 -2.6178,-0.135845 -3.87923,0.289801 -0.40364,0.807271 -0.53206,1.724623 -0.22016,2.752059 1.17421,0.899007 3.22908,0.146777 4.84362,0.220165 -0.0734,1.394376 -0.14678,2.788751 -0.22017,4.183127 1.79674,1.210374 5.00707,-0.355412 6.15908,1.042982 -0.66749,2.392345 -4.21597,1.709793 -5.79028,2.833157 -0.19798,0.141273 0.10085,1.28944 0.008,1.556761 0.61644,0.993181 3.37319,0.311901 4.83477,1.382403 0.62982,2.474815 -4.98838,0.05684 -3.23704,3.091964 0.29601,1.614587 0.67458,4.385037 1.10819,4.458471 0.33024,0.376119 6.6875,0.532063 6.85262,0.08256 0.46785,-0.04587 0.84626,-5.265604 0.85314,-5.641719 0.18576,-0.165123 2.86214,0 4.29321,0 0,1.064129 0,2.128258 0,3.192387 2.48233,0.476614 -2.64698,2.589464 0.30587,2.881418 1.97787,0.718992 3.12413,-1.360808 3.12856,-2.781704 1.534,-0.583808 0.86651,3.579646 2.85322,1.86672 3.15036,-0.599066 0.86417,4.565197 -1.38955,3.530539 -1.81387,0.212454 -3.74229,-0.195312 -5.55859,0.0071 0.24396,-2.251805 -4.02696,-1.143189 -4.07172,-0.76029 -0.63608,2.212561 -4.62736,-0.511821 -5.31862,2.537275 -0.66943,2.324672 0.46251,5.589701 -2.28963,6.816854 -0.7475,1.520014 -2.40177,5.165604 0.60361,4.635564 2.01329,-0.2615 3.92901,-1.30746 6.0161,-0.64053 2.49894,-0.48684 3.25026,2.31677 1.76117,3.93886 -1.24803,2.36067 0.22732,0.0924 -0.98954,2.46957"
         style="opacity:0.71799999;color:#000000;fill:none;stroke:#478397;stroke-width:1.5;stroke-linecap:butt;stroke-linejoin:round;stroke-miterlimit:4;stroke-opacity:1;stroke-dasharray:none;stroke-dashoffset:0;marker:none;visibility:visible;display:inline;overflow:visible;enable-background:accumulate"
         inkscape:connector-curvature="0" />
      <path
         sodipodi:nodetypes="cccccccsscccccscccccccccccccccccccc"
         id="path4374-99"
         d="m 166.56196,53.457577 c -2.15109,0.875235 -5.06558,1.646221 -7.23592,0.527331 -1.13779,-1.160851 -1.9157,-0.841032 -3.40221,-1.034865 -0.63071,0.190118 -1.64245,-0.537824 -1.63484,0.201792 0.0432,0.842691 -0.63029,2.092446 -0.12769,2.147661 0.88065,0.110082 1.15586,0.715534 2.03652,0.825616 -0.18347,1.100823 -0.0917,1.651235 -0.27521,2.752058 -0.8637,0.131752 -1.60608,-0.294346 -2.52244,0.02696 -0.33423,0.117193 -0.0188,1.080373 -0.36839,1.224391 -1.09433,0.45086 -2.6178,-0.135845 -3.87923,0.289801 -0.40364,0.807271 -0.53206,1.724623 -0.22016,2.752058 1.17421,0.899007 3.22908,0.146777 4.84362,0.220165 -0.0734,1.394376 -0.14678,2.788751 -0.22017,4.183127 1.79674,1.210374 5.00708,-0.355412 6.15908,1.042982 -0.66749,2.392345 -4.21596,1.709793 -5.79028,2.833157 -0.19798,0.141273 0.10085,1.28944 0.008,1.556761 0.61644,0.993182 3.37319,0.311901 4.83478,1.382404 0.62981,2.474815 -4.98839,0.05684 -3.23705,3.091964 0.29601,1.614587 0.67458,4.385037 1.10819,4.458471 0.33025,0.376119 6.6875,0.532063 6.85262,0.08256 0.46785,-0.04587 0.84626,-5.265604 0.85314,-5.641719 0.18576,-0.165123 2.86214,0 4.29321,0 0,1.064129 0,2.128258 0,3.192387 2.48233,0.476614 -2.64697,2.589464 0.30587,2.881418 1.97787,0.718992 3.12413,-1.360808 3.12856,-2.781704 1.534,-0.583808 0.86651,3.579646 2.85323,1.86672 3.15035,-0.599066 0.86416,4.565197 -1.38956,3.530539 -1.81387,0.212454 -3.74229,-0.195312 -5.55859,0.0071 0.24396,-2.251805 -4.02696,-1.143189 -4.07172,-0.76029 -0.63608,2.212561 -4.62736,-0.511821 -5.31862,2.537275 -0.66943,2.324672 0.46251,5.589701 -2.28963,6.816854 -0.74749,1.520014 -2.40177,5.165609 0.60361,4.635569 2.01329,-0.26151 3.92901,-1.30746 6.0161,-0.64054 2.49894,-0.48683 3.25026,2.31677 1.76117,3.93886 -1.24803,2.36067 -2.41924,4.76278 -3.6361,7.13997"
         style="color:#000000;fill:none;stroke:#2e3436;stroke-width:0.5;stroke-linecap:butt;stroke-linejoin:round;stroke-miterlimit:4;stroke-opacity:1;stroke-dasharray:none;stroke-dashoffset:0;marker:none;visibility:visible;display:inline;overflow:visible;enable-background:accumulate"
         inkscape:connector-curvature="0" />
      <path
         sodipodi:nodetypes="cssssssssssssscccsssssssssssssscccccssssssssssssssssscccssssssssssscccssscccssssssssssssccc"
         id="path4405-1"
         d="m 161.85746,107.75881 c 0,-0.0867 2.98669,-5.85207 3.35948,-6.48495 0.43205,-0.7335 0.55936,-1.38832 0.40915,-2.10446 -0.16056,-0.76549 -0.57698,-1.32907 -1.16975,-1.58316 -0.48616,-0.20838 -2.09775,-0.38741 -3.25937,-0.36209 -0.39355,0.009 -1.50056,0.19261 -2.46002,0.40894 -2.73257,0.61613 -3.26426,0.53411 -3.26426,-0.50353 0,-0.8929 0.8492,-3.226497 1.21655,-3.343091 0.31109,-0.09873 1.06394,-0.881451 1.30803,-1.359914 0.33226,-0.651281 0.43973,-1.228368 0.55618,-2.986544 0.1194,-1.802784 0.29805,-2.998618 0.51255,-3.430904 0.22168,-0.44677 0.76435,-0.575044 2.08968,-0.493953 1.81035,0.110767 2.75461,-0.200775 2.94837,-0.97276 0.12589,-0.501567 1.53013,-0.876329 2.59703,-0.693091 0.6347,0.109005 0.99074,0.491274 0.99074,1.063708 l 0,0.414428 2.77958,0.01835 c 1.52877,0.01009 3.03982,0.04948 3.35789,0.08754 0.4894,0.05855 0.67064,0.02402 1.17876,-0.224577 1.30548,-0.638712 2.09529,-2.456828 1.49497,-3.44138 -0.34974,-0.573591 -1.30541,-0.718276 -1.92803,-0.291896 -0.40918,0.280219 -0.6694,0.186064 -0.88201,-0.319151 -0.54204,-1.287999 -0.72924,-1.60199 -1.02917,-1.726223 -0.20925,-0.08667 -0.39754,-0.09357 -0.5871,-0.0215 -0.23248,0.08839 -0.28996,0.198186 -0.34441,0.657936 -0.0833,0.702952 -0.39843,1.319905 -0.89866,1.759115 -0.48363,0.424629 -0.78849,0.507158 -1.545,0.418245 -0.71148,-0.08362 -0.93681,-0.162871 -0.9348,-0.328772 8.8e-4,-0.0692 0.2733,-0.445515 0.60546,-0.836248 0.40012,-0.470681 0.60392,-0.80855 0.60392,-1.001201 0,-0.293428 -0.29348,-0.655146 -0.53156,-0.655146 -0.0928,0 -0.12893,-0.46284 -0.12893,-1.651235 l 0,-1.651234 -2.40436,0 -2.33557,0.04128 -0.13958,1.417309 c -0.17554,1.929507 -0.12224,3.258118 -0.26416,3.884395 -0.0935,0.412573 -0.41904,0.678312 -0.64503,0.735032 -0.39141,0.09824 -4.59436,0.05833 -5.39841,-0.03948 -0.36328,-0.04421 -0.88312,-0.152074 -0.98704,-0.20607 -0.24063,-0.125032 -0.50296,-1.093618 -0.84345,-2.936153 -0.14897,-0.806153 -0.16338,-1.719271 -0.26746,-2.012333 -0.23314,-0.656422 -0.11977,-0.847221 0.55203,-0.929039 2.33374,-0.284223 2.58665,-0.368717 2.82483,-0.943744 0.40967,-0.989026 -0.42498,-1.461179 -3.10358,-1.755659 -0.58732,-0.06457 -1.18908,-0.172634 -1.33726,-0.240146 -0.28145,-0.128246 -0.40199,-0.476912 -0.40199,-1.162828 0,-0.330015 0.0503,-0.398152 0.40235,-0.545255 0.22129,-0.09246 0.85288,-0.263436 1.40355,-0.379946 2.61616,-0.55353 3.47366,-1.009031 3.91771,-2.081076 0.18294,-0.441651 0.0855,-0.622082 -0.50242,-0.930519 -0.38426,-0.201589 -0.69096,-0.23345 -2.74434,-0.28509 -2.87246,-0.07224 -2.85179,-0.06417 -2.76445,-1.079557 0.0347,-0.403538 0.0948,-1.365303 0.13355,-2.137255 l 0.0704,-1.403549 -0.59117,-1.59e-4 c -0.32515,-8.7e-5 -1.11421,0.0565 -1.75348,0.125743 -1.32431,0.143451 -2.11582,0.06389 -2.4233,-0.243601 -0.26119,-0.261184 -0.29631,-1.449156 -0.0596,-2.015695 0.18735,-0.44841 0.51532,-0.52201 1.92047,-0.430974 1.1237,0.0728 2.05543,-0.09986 2.22239,-0.41183 0.0593,-0.110769 0.10779,-0.372733 0.10779,-0.582144 0,-0.502196 0.13382,-0.542268 1.50434,-0.450463 1.12404,0.07529 1.12619,0.07495 1.1811,-0.186889 0.0589,-0.280823 0.28758,-2.563429 0.28708,-2.865374 -2.4e-4,-0.142979 -0.19636,-0.210411 -0.92897,-0.319405 -0.51077,-0.07599 -1.20164,-0.611131 -1.26618,-0.651015 -0.0787,-0.04863 -0.28622,-0.158143 0.0373,-0.89333 l 0.0446,-1.123532 1.11151,-0.140844 c 0.18751,0.02849 0.28038,0.301305 0.94637,0.337166 1.42693,0.07683 1.83455,0.184004 2.40701,0.632854 0.78064,0.612072 1.40738,0.786307 2.8219,0.784497 1.30182,-0.0017 2.43833,-0.234955 3.92614,-0.805904 l 0.56863,-0.218211 1.06539,0.954004 c 0.49151,0.440126 1.30702,0.699137 1.81185,1.22977 1.00675,1.058202 1.679,2.11053 2.81603,3.193642 0.56085,0.534259 0.54979,1.933403 1.09794,2.435681 1.10007,1.008002 2.87606,4.343822 3.42004,5.822463 0.93372,2.537998 1.37368,5.377946 1.72588,8.113847 0.0882,0.685369 0.47689,1.971793 0.43177,3.35725 -0.054,1.65797 -0.56103,3.440948 -0.66699,4.277349 -0.23897,1.886408 -0.13433,3.904447 -0.63372,5.632905 -0.53752,1.860474 -1.69421,3.425701 -2.57261,5.210202 -0.53954,1.096072 -0.96487,2.893338 -1.85658,4.153338 -1.50391,2.12502 -3.50412,3.86529 -5.51956,5.74685 -0.8818,0.82322 -3.19038,2.425 -4.33116,3.26006 -1.1089,0.81173 -1.41315,1.80519 -1.06287,0.70022 l 0,0 -1e-5,-4e-5 z"
         style="fill:#a40000;fill-opacity:1;fill-rule:evenodd;stroke:none"
         inkscape:connector-curvature="0" />
      <path
         sodipodi:nodetypes="cscccccccccccccccccscccccccccccccccccccccccccc"
         id="path4386-7-4"
         d="m 138.58869,46.983311 c 0.20635,1.268312 5.7e-4,2.014617 -0.16612,3.574211 -0.18631,1.743284 -0.162,3.66822 -0.25964,5.327064 -0.80167,0.520748 -2.10973,0.62437 -2.11012,1.805167 0.0825,1.307563 -1.21153,0.781355 -2.05254,0.858658 -1.17343,0.226787 -2.83159,1.256866 -2.53157,0.02775 0.44012,-1.356445 -1.24613,-1.417514 -2.11872,-1.49929 -1.16192,-0.03417 -0.88818,-0.21931 -1.9612,-0.312433 -0.27787,0.625746 -0.65628,1.532577 0.45609,1.620927 0.88526,0.237077 1.98638,0.289208 1.73082,1.503745 0.009,0.867742 0.59341,2.629099 0.1884,2.718955 -0.86162,0.328387 -2.16499,0.435429 -2.68798,1.347773 -0.54018,0.853026 -0.97848,1.415291 -0.68465,2.473467 0.17148,0.788346 1.70601,0.143774 2.4285,0.352876 1.0441,-0.219548 1.76781,0.126802 2.10101,1.16285 0.48233,0.724575 0.44698,1.811469 0.32756,2.495628 -0.42305,0.958152 -0.86478,1.695628 -1.79264,2.187362 -1.13801,0.867627 -2.46971,1.587004 -3.48716,2.546914 -0.65756,1.820918 -2.36089,4.192249 -1.97266,5.462755 -0.0789,0.705113 0.87937,1.047553 1.55408,1.838799 0.46136,0.541032 1.28763,1.416275 0.93679,2.053198 -0.14227,0.705282 -1.8257,1.383042 -2.84864,1.45535 -1.19903,-0.223219 -3.77409,-5.124937 -4.31263,-4.880307 -1.50627,-0.164779 -1.88381,1.065233 -1.73339,1.826341 1.00477,1.888813 1.84453,3.930435 2.95235,5.723816 1.83102,1.036504 3.60331,2.285018 5.47027,3.191755 4.87964,0 14.63042,-0.605453 14.63891,0 1.26379,1.061058 1.40028,4.423628 2.31278,4.740728 0.11746,0.5222 5.71152,2.44795 5.47122,2.88759 0.35757,0.79777 0.5191,2.1906 -0.14285,2.53205 -1.4054,0.19385 -4.21434,0.11249 -4.21619,0.58154 -0.23685,0.98296 -0.18029,2.17647 -0.60052,3.02784 -1.0217,0.62397 -1.96367,1.23126 -2.82102,1.9836 -1.72659,0.80742 0.0107,1.14033 -0.39262,2.80399 -1.46088,-0.21859 -3.50279,-0.16116 -4.74823,-0.57631 -0.66403,-2.48054 0.43495,-3.89732 -1.25327,-6.36952 -1.27557,-2.38785 -0.47179,-3.11599 -1.58021,-2.83219 -1.23124,-0.0631 -1.34182,-0.75408 -2.51635,-0.97607 -0.66215,-0.67779 -2.15351,0.0372 -2.4075,-1.10802 0.14349,-0.79521 -1.57196,-0.0921 -0.91994,-0.48935 1.19387,-0.42719 0.645,-1.31228 0.39049,-2.388682 -0.48648,-1.193559 0.55257,-2.197052 -0.23404,-2.451847 -1.97801,-0.327574 -5.5758,-1.455334 -7.50578,-1.89932 -0.62684,-0.670382 -1.78155,-0.06461 -1.56167,-1.182669 -0.14017,-0.843185 -0.22181,-2.07662 -0.60226,-2.678616 -1.19525,-0.0498 -1.8401,-3.071832 -3.03536,-3.121629"
         style="opacity:0.71219512;fill:none;stroke:#478397;stroke-width:2.70000005;stroke-linecap:butt;stroke-linejoin:miter;stroke-miterlimit:3.4000001;stroke-opacity:1;stroke-dasharray:none;display:inline"
         inkscape:connector-curvature="0" />
      <path
         sodipodi:nodetypes="ccccccccccccccccccscccccccccccccccccccccccccc"
         id="path4386-9"
         d="m 137.09701,46.076754 c -0.15568,3.113598 -0.31136,6.227196 -0.46704,9.340794 -0.80167,0.520748 -2.10973,0.62437 -2.11012,1.805167 0.0825,1.307563 -1.21153,0.781355 -2.05254,0.858658 -1.17343,0.226787 -1.74183,-0.144253 -1.44181,-1.373372 0.44012,-1.356445 -0.93477,-0.950475 -1.80736,-1.032251 -1.16192,-0.03417 -3.53474,0.01421 -3.59584,0.310287 -0.27787,0.625746 -0.42276,1.843937 0.6896,1.932287 0.88527,0.237077 1.98639,0.289208 1.73083,1.503745 0.009,0.867742 0.59341,2.629099 0.1884,2.718955 -0.86162,0.328387 -2.165,0.435429 -2.68798,1.347773 -0.54018,0.853026 -0.97848,1.415291 -0.68465,2.473467 0.17148,0.788346 1.70601,0.143774 2.4285,0.352876 1.0441,-0.219548 1.76781,0.126802 2.10101,1.16285 0.48233,0.724575 0.44698,1.811469 0.32756,2.495628 -0.42305,0.958152 -0.86478,1.695628 -1.79264,2.187361 -1.13801,0.867627 -2.46971,1.587004 -3.48716,2.546915 -0.65756,1.820918 -2.36089,4.192249 -1.97266,5.462755 -0.0789,0.705113 0.87937,1.047553 1.55408,1.838799 0.46136,0.541032 1.28763,1.416275 0.93679,2.053198 -0.14227,0.705282 -1.8257,1.383042 -2.84864,1.45535 -1.19903,-0.223219 -3.77409,-5.124937 -4.31263,-4.880307 -1.50627,-0.164779 -1.88381,1.065233 -1.73339,1.826341 1.00477,1.888813 1.84453,3.930435 2.95235,5.723816 1.83102,1.036504 3.60331,2.285018 5.47027,3.191755 4.87964,0 14.63042,-0.605453 14.63891,0 1.26379,1.061058 1.40028,4.423629 2.31278,4.740729 0.11746,0.5222 5.71152,2.44795 5.47122,2.88759 0.35757,0.79776 0.5191,2.1906 -0.14285,2.53205 -1.4054,0.19385 -4.21434,0.11249 -4.21619,0.58154 -0.23685,0.98296 -0.18029,2.17647 -0.60052,3.02784 -1.0217,0.62397 -2.31395,1.03665 -3.1713,1.789 -0.40331,1.66366 -0.80662,3.32733 -1.20994,4.991 -1.24544,-0.41515 -2.49088,-0.8303 -3.73631,-1.24544 -0.66403,-2.48054 -0.17994,-5.00044 -1.86816,-7.47264 -0.17476,-0.51645 -1.35246,-1.68492 -2.46087,-1.40112 -1.23125,-0.0631 -2.55273,0.12658 -3.72726,-0.0954 -0.66215,-0.67779 -1.38293,-1.06366 -1.63692,-2.20884 0.14349,-0.79521 -0.47114,-2.18365 0.18088,-2.58092 1.19387,-0.42718 1.63574,-0.65178 1.38123,-1.728183 -0.48648,-1.193559 -1.42891,-0.876064 -2.21552,-1.130859 -1.97801,-0.327574 -4.03465,-0.464594 -5.96463,-0.90858 -0.62684,-0.670382 -2.00171,-0.945266 -1.78183,-2.063327 -0.14017,-0.843185 0.10843,-2.07662 -0.27202,-2.678616 -1.19525,-0.0498 -2.39051,-0.09961 -3.58577,-0.149407"
         style="fill:none;stroke:#2e3436;stroke-width:0.5;stroke-linecap:butt;stroke-linejoin:miter;stroke-miterlimit:4;stroke-opacity:1;stroke-dasharray:none"
         inkscape:connector-curvature="0" />
      <path
         sodipodi:nodetypes="cssssccccccsssssssscccsssssssssssssssssssscccsssssssssssssssssccccccssssssssssscccc"
         id="path4403-1"
         d="m 135.71632,111.03499 c -0.82996,-0.28282 -1.55783,-0.56375 -1.61748,-0.6243 -0.0597,-0.0606 -0.18787,-0.70453 -0.28494,-1.43107 -0.45712,-3.4216 -0.64385,-4.17272 -1.35253,-5.44073 -0.47943,-0.8578 -0.89808,-1.34848 -1.43586,-1.68288 -0.38007,-0.23633 -0.54945,-0.25531 -2.74034,-0.30695 l -2.33522,-0.055 -0.56333,-0.55041 c -0.80715,-0.78865 -0.94527,-1.12077 -1.0372,-2.49403 l -0.0785,-1.17304 0.72553,-0.34626 c 0.87859,-0.41932 1.11386,-0.77335 1.0034,-1.509927 -0.0869,-0.579405 -0.56969,-1.181228 -1.08168,-1.348331 -0.19375,-0.06323 -1.59069,-0.290082 -3.10433,-0.504108 -3.98204,-0.563055 -3.95933,-0.557684 -4.82638,-1.141595 -0.41434,-0.279034 -0.80077,-0.595945 -0.85873,-0.704246 -0.058,-0.108302 -0.13413,-0.802297 -0.16926,-1.542212 -0.0351,-0.739916 -0.12917,-1.506297 -0.20896,-1.703069 -0.14206,-0.350314 -0.15953,-0.357781 -0.83871,-0.358427 -0.3815,-3.31e-4 -1.10238,-0.03248 -1.60197,-0.07137 l -0.90833,-0.07071 -0.11953,-0.443916 c -0.5116,-1.899917 -1.32558,-3.94059 -1.51444,-5.942575 -0.21732,-2.303537 0.2543,-4.644108 0.66716,-8.123287 0.27216,-2.293518 1.40617,-5.353417 2.26631,-7.423521 1.3986,-3.365995 3.1494,-5.829761 5.31975,-8.64773 3.65536,-4.746126 10.13709,-8.335455 16.40096,-10.137272 0.68185,-0.196136 1.38991,-0.109134 1.43075,-0.06829 0.0718,0.07185 -0.43594,7.891249 -0.51678,8.026915 -0.022,0.03698 -0.35453,0.21745 -0.73889,0.401046 -0.86833,0.414779 -1.23628,0.835464 -1.34077,1.532924 -0.0437,0.291879 -0.13657,0.567083 -0.20631,0.611565 -0.0697,0.04448 -0.67804,0.08164 -1.35176,0.08256 -0.92234,0.0013 -1.25682,-0.03672 -1.35397,-0.153783 -0.0888,-0.107019 -0.10597,-0.409963 -0.055,-0.972133 0.073,-0.805463 0.0697,-0.820093 -0.24222,-1.066452 -0.31122,-0.245828 -0.35372,-0.249027 -2.683,-0.201891 -1.34595,0.02724 -2.49151,0.09982 -2.65598,0.168277 -0.33906,0.14113 -0.5364,0.621837 -0.5364,1.306658 0,0.714262 0.39746,1.10457 1.34369,1.319505 1.06144,0.241106 1.29828,0.460067 1.29828,1.200269 0,0.325625 0.046,0.829784 0.10216,1.120354 0.0562,0.29057 0.12595,0.705338 0.15505,0.921708 l 0.0529,0.393398 -0.89811,0.29387 c -1.22082,0.399465 -1.54508,0.622185 -2.0554,1.411744 -0.63601,0.98403 -0.80204,1.74309 -0.5435,2.484734 0.1775,0.509198 0.46642,0.579794 2.10864,0.515247 1.78238,-0.07006 1.88432,-0.02929 2.36913,0.947423 0.45313,0.912885 0.50393,2.03682 0.12583,2.783964 -0.43027,0.850229 -0.64288,1.050731 -2.43858,2.299711 -1.73173,1.204496 -2.72091,2.00167 -2.72091,2.192774 0,0.05118 -0.36997,0.878594 -0.82215,1.838691 -0.96763,2.054526 -1.16077,2.702547 -1.05241,3.53114 0.0743,0.568242 0.11598,0.628527 1.02727,1.486111 1.81419,1.707258 1.95169,2.364703 0.63505,3.036404 -0.65859,0.335987 -1.64545,0.56954 -1.87882,0.444647 -0.32511,-0.173995 -1.15195,-1.154171 -2.21309,-2.623522 -1.47631,-2.04422 -1.54876,-2.110291 -2.31394,-2.110291 -0.51953,0 -0.69074,0.05073 -0.9731,0.288319 -0.45926,0.386442 -0.68333,0.849845 -0.68333,1.413204 0,0.362508 0.19969,0.867348 0.89867,2.271935 0.49426,0.993224 1.1721,2.301233 1.5063,2.906686 l 0.60763,1.100823 2.16311,1.283852 c 1.18971,0.706119 2.45456,1.445251 2.81078,1.642516 l 0.64766,0.358664 4.80141,-0.130649 c 5.79524,-0.157693 9.14703,-0.164521 9.52869,-0.01941 0.42783,0.16266 0.86911,0.960453 1.32555,2.396461 0.74434,2.341768 0.86871,2.470838 3.52432,3.657698 2.72226,1.21665 2.99004,1.37276 3.1414,1.83137 0.18163,0.55036 0.19326,1.51033 0.0208,1.71866 -0.10402,0.12566 -0.47386,0.18923 -1.43107,0.24601 -1.80555,0.10711 -2.65802,0.23764 -2.88329,0.44152 -0.13324,0.12058 -0.23548,0.49125 -0.32825,1.19006 -0.26278,1.97939 -0.18636,1.85566 -1.58666,2.56891 -2.07794,1.05841 -1.93341,0.85715 -2.5997,3.62014 -0.31388,1.30159 -0.60384,2.36262 -0.64435,2.35786 -0.0405,-0.005 -0.75272,-0.24007 -1.58268,-0.52289 l 0,0 -1e-5,-10e-6 -2e-5,0 z"
         style="fill:#a40000;fill-opacity:1;fill-rule:evenodd;stroke:none"
         inkscape:connector-curvature="0" />
      <path
         style="color:#000000;fill:#a40000;fill-opacity:1;fill-rule:evenodd;stroke:none;stroke-width:1;marker:none;visibility:visible;display:inline;overflow:visible;enable-background:accumulate"
         d="m 135.87668,137.47569 c 0.8869,-0.13455 1.7738,-0.26909 2.6607,-0.40364 0.20972,0.58585 0.41944,1.1717 0.62916,1.75755 -0.8869,0.13454 -1.7738,0.26909 -2.6607,0.40363 -0.20972,-0.58584 -0.41944,-1.17169 -0.62916,-1.75754 z"
         id="rect4030-27-0"
         inkscape:connector-curvature="0" />
      <path
         style="color:#000000;fill:#483119;fill-opacity:1;fill-rule:evenodd;stroke:none;stroke-width:1;marker:none;visibility:visible;display:inline;overflow:visible;enable-background:accumulate"
         d="m 136.22973,137.0448 c 0.8869,-0.13454 1.7738,-0.26909 2.6607,-0.40363 0.20972,0.58585 0.41944,1.17169 0.62916,1.75754 -0.8869,0.13455 -1.7738,0.26909 -2.6607,0.40364 -0.20972,-0.58585 -0.41944,-1.1717 -0.62916,-1.75755 z"
         id="rect4030-75"
         inkscape:connector-curvature="0" />
      <path
         style="color:#000000;fill:#2a1c0a;fill-opacity:1;fill-rule:evenodd;stroke:none;stroke-width:1;marker:none;visibility:visible;display:inline;overflow:visible;enable-background:accumulate"
         d="m 133.18993,132.4956 c 0.8869,-0.13454 1.7738,-0.26909 2.6607,-0.40363 0.20972,0.58585 0.41944,1.17169 0.62916,1.75754 -0.8869,0.13455 -1.7738,0.26909 -2.6607,0.40364 -0.20972,-0.58585 -0.41944,-1.1717 -0.62916,-1.75755 z"
         id="rect4030-2-9-8"
         inkscape:connector-curvature="0" />
      <path
         style="color:#000000;fill:#483119;fill-opacity:1;fill-rule:evenodd;stroke:none;stroke-width:1;marker:none;visibility:visible;display:inline;overflow:visible;enable-background:accumulate"
         d="m 133.54298,132.06472 c 0.8869,-0.13455 1.7738,-0.26909 2.66069,-0.40364 0.20972,0.58585 0.41944,1.1717 0.62916,1.75755 -0.88689,0.13454 -1.77379,0.26909 -2.66069,0.40363 -0.20972,-0.58585 -0.41944,-1.17169 -0.62916,-1.75754 z"
         id="rect4030-2-7"
         inkscape:connector-curvature="0" />
      <path
         style="color:#000000;fill:#2a1c0a;fill-opacity:1;fill-rule:evenodd;stroke:none;stroke-width:1;marker:none;visibility:visible;display:inline;overflow:visible;enable-background:accumulate"
         d="m 134.59105,134.8308 c 0.8869,-0.13454 1.7738,-0.26909 2.6607,-0.40363 0.20972,0.58584 0.41944,1.17169 0.62916,1.75754 -0.8869,0.13455 -1.7738,0.26909 -2.6607,0.40364 -0.20972,-0.58585 -0.41944,-1.1717 -0.62916,-1.75755 z"
         id="rect4030-7-0-0"
         inkscape:connector-curvature="0" />
      <path
         style="color:#000000;fill:#483119;fill-opacity:1;fill-rule:evenodd;stroke:none;stroke-width:1;marker:none;visibility:visible;display:inline;overflow:visible;enable-background:accumulate"
         d="m 134.9441,134.39992 c 0.88689,-0.13455 1.77379,-0.2691 2.66069,-0.40364 0.20972,0.58585 0.41944,1.1717 0.62916,1.75754 -0.8869,0.13455 -1.7738,0.2691 -2.66069,0.40364 -0.20972,-0.58585 -0.41944,-1.1717 -0.62916,-1.75754 z"
         id="rect4030-7-4"
         inkscape:connector-curvature="0" />
      <path
         style="color:#000000;fill:#2a1c0a;fill-opacity:1;fill-rule:evenodd;stroke:none;stroke-width:1;marker:none;visibility:visible;display:inline;overflow:visible;enable-background:accumulate"
         d="m 138.01601,131.48368 c 0.8869,-0.13454 1.7738,-0.26909 2.6607,-0.40363 0.20972,0.58585 0.41944,1.1717 0.62916,1.75754 -0.8869,0.13455 -1.7738,0.26909 -2.6607,0.40364 -0.20972,-0.58585 -0.41944,-1.1717 -0.62916,-1.75755 z"
         id="rect4030-22-3-8"
         inkscape:connector-curvature="0" />
      <path
         style="color:#000000;fill:#483119;fill-opacity:1;fill-rule:evenodd;stroke:none;stroke-width:1;marker:none;visibility:visible;display:inline;overflow:visible;enable-background:accumulate"
         d="m 138.36905,131.0528 c 0.8869,-0.13455 1.7738,-0.26909 2.6607,-0.40364 0.20972,0.58585 0.41944,1.1717 0.62916,1.75755 -0.8869,0.13454 -1.7738,0.26909 -2.6607,0.40363 -0.20972,-0.58584 -0.41944,-1.17169 -0.62916,-1.75754 z"
         id="rect4030-22-0"
         inkscape:connector-curvature="0" />
      <path
         style="color:#000000;fill:#2a1c0a;fill-opacity:1;fill-rule:evenodd;stroke:none;stroke-width:1;marker:none;visibility:visible;display:inline;overflow:visible;enable-background:accumulate"
         d="m 138.87225,134.13024 c 0.8869,-0.13454 1.7738,-0.26909 2.66069,-0.40363 0.20972,0.58584 0.41944,1.17169 0.62916,1.75754 -0.88689,0.13455 -1.77379,0.26909 -2.66069,0.40364 -0.20972,-0.58585 -0.41944,-1.1717 -0.62916,-1.75755 z"
         id="rect4030-25-4-4"
         inkscape:connector-curvature="0" />
      <path
         style="color:#000000;fill:#483119;fill-opacity:1;fill-rule:evenodd;stroke:none;stroke-width:1;marker:none;visibility:visible;display:inline;overflow:visible;enable-background:accumulate"
         d="m 139.22529,133.69936 c 0.8869,-0.13455 1.7738,-0.26909 2.6607,-0.40364 0.20972,0.58585 0.41944,1.1717 0.62916,1.75755 -0.8869,0.13454 -1.7738,0.26909 -2.6607,0.40363 -0.20972,-0.58585 -0.41944,-1.1717 -0.62916,-1.75754 z"
         id="rect4030-25-2"
         inkscape:connector-curvature="0" />
      <path
         style="color:#000000;fill:#2a1c0a;fill-opacity:1;fill-rule:evenodd;stroke:none;stroke-width:1;marker:none;visibility:visible;display:inline;overflow:visible;enable-background:accumulate"
         d="m 143.38696,133.97456 c 0.8869,-0.13454 1.7738,-0.26909 2.6607,-0.40363 0.20972,0.58584 0.41944,1.17169 0.62916,1.75754 -0.8869,0.13455 -1.7738,0.26909 -2.6607,0.40364 -0.20972,-0.58585 -0.41944,-1.1717 -0.62916,-1.75755 z"
         id="rect4030-73-0-9"
         inkscape:connector-curvature="0" />
      <path
         style="color:#000000;fill:#2a1c0a;fill-opacity:1;fill-rule:evenodd;stroke:none;stroke-width:1;marker:none;visibility:visible;display:inline;overflow:visible;enable-background:accumulate"
         d="m 140.11769,136.30976 c 0.88689,-0.13454 1.77379,-0.26909 2.66069,-0.40364 0.20972,0.58585 0.41944,1.1717 0.62916,1.75755 -0.8869,0.13454 -1.7738,0.26909 -2.66069,0.40364 -0.20972,-0.58585 -0.41944,-1.1717 -0.62916,-1.75755 z"
         id="rect4030-254-4-6"
         inkscape:connector-curvature="0" />
      <path
         style="color:#000000;fill:#483119;fill-opacity:1;fill-rule:evenodd;stroke:none;stroke-width:1;marker:none;visibility:visible;display:inline;overflow:visible;enable-background:accumulate"
         d="m 140.47073,135.87887 c 0.8869,-0.13454 1.7738,-0.26909 2.6607,-0.40363 0.20972,0.58585 0.41944,1.1717 0.62916,1.75754 -0.8869,0.13455 -1.7738,0.26909 -2.6607,0.40364 -0.20972,-0.58585 -0.41944,-1.1717 -0.62916,-1.75755 z"
         id="rect4030-254-1"
         inkscape:connector-curvature="0" />
      <path
         style="color:#000000;fill:#2a1c0a;fill-opacity:1;fill-rule:evenodd;stroke:none;stroke-width:1;marker:none;visibility:visible;display:inline;overflow:visible;enable-background:accumulate"
         d="m 146.50056,131.87288 c 0.8869,-0.13454 1.7738,-0.26909 2.6607,-0.40363 0.20972,0.58585 0.41944,1.17169 0.62916,1.75754 -0.8869,0.13455 -1.7738,0.26909 -2.6607,0.40364 -0.20972,-0.58585 -0.41944,-1.1717 -0.62916,-1.75755 z"
         id="rect4030-1-6-0"
         inkscape:connector-curvature="0" />
      <path
         style="color:#000000;fill:#483119;fill-opacity:1;fill-rule:evenodd;stroke:none;stroke-width:1;marker:none;visibility:visible;display:inline;overflow:visible;enable-background:accumulate"
         d="m 142.57241,131.20848 c 0.8869,-0.13455 1.7738,-0.26909 2.6607,-0.40364 0.20972,0.58585 0.41944,1.1717 0.62916,1.75755 -0.8869,0.13454 -1.7738,0.26909 -2.6607,0.40363 -0.20972,-0.58585 -0.41944,-1.17169 -0.62916,-1.75754 z"
         id="rect4030-6-4"
         inkscape:connector-curvature="0" />
      <path
         style="color:#000000;fill:#2a1c0a;fill-opacity:1;fill-rule:evenodd;stroke:none;stroke-width:1;marker:none;visibility:visible;display:inline;overflow:visible;enable-background:accumulate"
         d="m 147.59032,134.0524 c 0.8869,-0.13454 1.7738,-0.26909 2.6607,-0.40363 0.20972,0.58584 0.41944,1.17169 0.62916,1.75754 -0.8869,0.13455 -1.7738,0.26909 -2.6607,0.40364 -0.20972,-0.58585 -0.41944,-1.1717 -0.62916,-1.75755 z"
         id="rect4030-4-8-2"
         inkscape:connector-curvature="0" />
      <path
         style="color:#000000;fill:#483119;fill-opacity:1;fill-rule:evenodd;stroke:none;stroke-width:1;marker:none;visibility:visible;display:inline;overflow:visible;enable-background:accumulate"
         d="m 143.74001,133.54368 c 0.8869,-0.13455 1.7738,-0.26909 2.6607,-0.40364 0.20972,0.58585 0.41944,1.1717 0.62916,1.75755 -0.8869,0.13454 -1.7738,0.26909 -2.6607,0.40363 -0.20972,-0.58585 -0.41944,-1.1717 -0.62916,-1.75754 z"
         id="rect4030-73-2"
         inkscape:connector-curvature="0" />
      <path
         style="color:#000000;fill:#2a1c0a;fill-opacity:1;fill-rule:evenodd;stroke:none;stroke-width:1;marker:none;visibility:visible;display:inline;overflow:visible;enable-background:accumulate"
         d="m 148.9055,137.29519 c 0.8869,-0.11942 14.10302,-1.36246 14.98991,-1.48188 0.20972,0.51999 0.41944,1.03997 0.62916,1.55996 -0.88689,0.11942 -14.10301,1.36246 -14.98991,1.48188 -0.20972,-0.51999 -0.41944,-1.03997 -0.62916,-1.55996 z"
         id="rect4030-8-1-2"
         sodipodi:nodetypes="ccccc"
         inkscape:connector-curvature="0" />
      <path
         style="color:#000000;fill:#2a1c0a;fill-opacity:1;fill-rule:evenodd;stroke:none;stroke-width:1;marker:none;visibility:visible;display:inline;overflow:visible;enable-background:accumulate"
         d="m 150.15904,131.25016 c 0.8869,-0.13454 1.7738,-0.26909 2.6607,-0.40363 0.20972,0.58585 0.41944,1.17169 0.62916,1.75754 -0.8869,0.13455 -1.7738,0.26909 -2.6607,0.40364 -0.20972,-0.58585 -0.41944,-1.1717 -0.62916,-1.75755 z"
         id="rect4030-64-2-0"
         inkscape:connector-curvature="0" />
      <path
         style="color:#000000;fill:#483119;fill-opacity:1;fill-rule:evenodd;stroke:none;stroke-width:1;marker:none;visibility:visible;display:inline;overflow:visible;enable-background:accumulate"
         d="m 146.85361,131.442 c 0.8869,-0.13455 1.7738,-0.26909 2.6607,-0.40364 0.20972,0.58585 0.41944,1.1717 0.62916,1.75755 -0.8869,0.13454 -1.7738,0.26909 -2.6607,0.40363 -0.20972,-0.58585 -0.41944,-1.17169 -0.62916,-1.75754 z"
         id="rect4030-1-5"
         inkscape:connector-curvature="0" />
      <path
         style="color:#000000;fill:#2a1c0a;fill-opacity:1;fill-rule:evenodd;stroke:none;stroke-width:1;marker:none;visibility:visible;display:inline;overflow:visible;enable-background:accumulate"
         d="m 151.32664,133.50752 c 0.8869,-0.13454 1.7738,-0.26909 2.6607,-0.40363 0.20972,0.58584 0.41944,1.17169 0.62916,1.75754 -0.8869,0.13455 -1.7738,0.26909 -2.6607,0.40364 -0.20972,-0.58585 -0.41944,-1.1717 -0.62916,-1.75755 z"
         id="rect4030-40-8-5"
         inkscape:connector-curvature="0" />
      <path
         style="color:#000000;fill:#483119;fill-opacity:1;fill-rule:evenodd;stroke:none;stroke-width:1;marker:none;visibility:visible;display:inline;overflow:visible;enable-background:accumulate"
         d="m 147.94337,133.62152 c 0.8869,-0.13455 1.7738,-0.26909 2.66069,-0.40364 0.20972,0.58585 0.41944,1.1717 0.62916,1.75755 -0.88689,0.13454 -1.77379,0.26909 -2.66069,0.40363 -0.20972,-0.58585 -0.41944,-1.1717 -0.62916,-1.75754 z"
         id="rect4030-4-2"
         inkscape:connector-curvature="0" />
      <path
         style="color:#000000;fill:#483119;fill-opacity:1;fill-rule:evenodd;stroke:none;stroke-width:1;marker:none;visibility:visible;display:inline;overflow:visible;enable-background:accumulate"
         d="m 148.97666,136.59186 c 0.39326,-0.055 3.12337,-0.87713 6.24724,-0.86062 3.77923,0.02 8.30408,-0.68512 8.79772,-0.75414 0.20972,0.53991 0.41944,1.07982 0.62916,1.61973 -0.8869,0.124 -14.15806,1.49076 -15.04496,1.61476 -0.20972,-0.53991 -0.41944,-1.07982 -0.62916,-1.61973 z"
         id="rect4030-8-9"
         sodipodi:nodetypes="cscccc"
         inkscape:connector-curvature="0" />
      <path
         style="color:#000000;fill:#2a1c0a;fill-opacity:1;fill-rule:evenodd;stroke:none;stroke-width:1;marker:none;visibility:visible;display:inline;overflow:visible;enable-background:accumulate"
         d="m 154.98512,130.47176 c 0.88689,-0.13454 1.77379,-0.26909 2.66069,-0.40363 0.20972,0.58585 0.41944,1.1717 0.62916,1.75754 -0.8869,0.13455 -1.7738,0.26909 -2.66069,0.40364 -0.20972,-0.58585 -0.41944,-1.1717 -0.62916,-1.75755 z"
         id="rect4030-5-5-0"
         inkscape:connector-curvature="0" />
      <path
         style="color:#000000;fill:#483119;fill-opacity:1;fill-rule:evenodd;stroke:none;stroke-width:1;marker:none;visibility:visible;display:inline;overflow:visible;enable-background:accumulate"
         d="m 150.51208,130.81928 c 0.8869,-0.13455 1.7738,-0.26909 2.6607,-0.40364 0.20972,0.58585 0.41944,1.1717 0.62916,1.75755 -0.8869,0.13454 -1.7738,0.26909 -2.6607,0.40363 -0.20972,-0.58585 -0.41944,-1.17169 -0.62915,-1.75754 z"
         id="rect4030-64-28"
         inkscape:connector-curvature="0" />
      <path
         style="color:#000000;fill:#2a1c0a;fill-opacity:1;fill-rule:evenodd;stroke:none;stroke-width:1;marker:none;visibility:visible;display:inline;overflow:visible;enable-background:accumulate"
         d="m 155.91919,132.8848 c 0.8869,-0.13454 1.7738,-0.26909 2.6607,-0.40363 0.20972,0.58584 0.41944,1.17169 0.62916,1.75754 -0.8869,0.13455 -1.7738,0.26909 -2.66069,0.40364 -0.20973,-0.58585 -0.41945,-1.1717 -0.62917,-1.75755 z"
         id="rect4030-77-4-3"
         inkscape:connector-curvature="0" />
      <path
         style="color:#000000;fill:#483119;fill-opacity:1;fill-rule:evenodd;stroke:none;stroke-width:1;marker:none;visibility:visible;display:inline;overflow:visible;enable-background:accumulate"
         d="m 151.67968,133.07664 c 0.8869,-0.13455 1.7738,-0.26909 2.6607,-0.40364 0.20972,0.58585 0.41944,1.1717 0.62916,1.75755 -0.8869,0.13454 -1.7738,0.26909 -2.6607,0.40363 -0.20972,-0.58585 -0.41944,-1.1717 -0.62916,-1.75754 z"
         id="rect4030-40-80"
         inkscape:connector-curvature="0" />
      <path
         style="color:#000000;fill:#2a1c0a;fill-opacity:1;fill-rule:evenodd;stroke:none;stroke-width:1;marker:none;visibility:visible;display:inline;overflow:visible;enable-background:accumulate"
         d="m 159.65551,130.62744 c 0.8869,-0.13454 1.7738,-0.26909 2.6607,-0.40363 0.20972,0.58585 0.41944,1.1717 0.62916,1.75754 -0.8869,0.13455 -1.7738,0.26909 -2.6607,0.40364 -0.20972,-0.58585 -0.41944,-1.1717 -0.62916,-1.75755 z"
         id="rect4030-79-7-4"
         inkscape:connector-curvature="0" />
      <path
         style="color:#000000;fill:#483119;fill-opacity:1;fill-rule:evenodd;stroke:none;stroke-width:1;marker:none;visibility:visible;display:inline;overflow:visible;enable-background:accumulate"
         d="m 155.33816,130.04088 c 0.8869,-0.13455 1.7738,-0.26909 2.6607,-0.40364 0.20972,0.58585 0.41944,1.1717 0.62916,1.75755 -0.8869,0.13454 -1.7738,0.26909 -2.6607,0.40363 -0.20972,-0.58584 -0.41944,-1.17169 -0.62916,-1.75754 z"
         id="rect4030-5-0"
         inkscape:connector-curvature="0" />
      <path
         style="color:#000000;fill:#2a1c0a;fill-opacity:1;fill-rule:evenodd;stroke:none;stroke-width:1;marker:none;visibility:visible;display:inline;overflow:visible;enable-background:accumulate"
         d="m 160.27823,133.274 c 0.8869,-0.13454 1.7738,-0.26909 2.6607,-0.40363 0.20972,0.58584 0.41944,1.17169 0.62916,1.75754 -0.8869,0.13455 -1.7738,0.26909 -2.6607,0.40364 -0.20972,-0.58585 -0.41944,-1.1717 -0.62916,-1.75755 z"
         id="rect4030-76-1-9"
         inkscape:connector-curvature="0" />
      <path
         style="color:#000000;fill:#483119;fill-opacity:1;fill-rule:evenodd;stroke:none;stroke-width:1;marker:none;visibility:visible;display:inline;overflow:visible;enable-background:accumulate"
         d="m 156.27224,132.45392 c 0.8869,-0.13455 1.7738,-0.26909 2.6607,-0.40364 0.20972,0.58585 0.41944,1.1717 0.62916,1.75755 -0.8869,0.13454 -1.7738,0.26909 -2.6607,0.40363 -0.20972,-0.58585 -0.41944,-1.1717 -0.62916,-1.75754 z"
         id="rect4030-77-1"
         inkscape:connector-curvature="0" />
      <path
         style="color:#000000;fill:#2a1c0a;fill-opacity:1;fill-rule:evenodd;stroke:none;stroke-width:1;marker:none;visibility:visible;display:inline;overflow:visible;enable-background:accumulate"
         d="m 144.47672,136.69896 c 0.8869,-0.13455 1.7738,-0.26909 2.6607,-0.40364 0.20972,0.58585 0.41944,1.1717 0.62916,1.75755 -0.8869,0.13454 -1.7738,0.26909 -2.6607,0.40363 -0.20972,-0.58584 -0.41944,-1.17169 -0.62916,-1.75754 z"
         id="rect4030-26-9-9"
         inkscape:connector-curvature="0" />
      <path
         style="color:#000000;fill:#2a1c0a;fill-opacity:1;fill-rule:evenodd;stroke:none;stroke-width:1;marker:none;visibility:visible;display:inline;overflow:visible;enable-background:accumulate"
         d="m 163.63546,129.72561 c 0.8869,-0.13455 1.7738,-0.26909 2.6607,-0.40364 0.20972,0.58585 0.41944,1.1717 0.62916,1.75755 -0.8869,0.13454 -1.7738,0.26909 -2.6607,0.40363 -0.20972,-0.58585 -0.41944,-1.17169 -0.62916,-1.75754 z"
         id="rect4030-50-0-6"
         inkscape:connector-curvature="0" />
      <path
         style="color:#000000;fill:#483119;fill-opacity:1;fill-rule:evenodd;stroke:none;stroke-width:1;marker:none;visibility:visible;display:inline;overflow:visible;enable-background:accumulate"
         d="m 160.00856,130.19656 c 0.8869,-0.13455 1.7738,-0.26909 2.6607,-0.40364 0.20972,0.58585 0.41944,1.1717 0.62916,1.75755 -0.8869,0.13454 -1.7738,0.26909 -2.6607,0.40363 -0.20972,-0.58584 -0.41944,-1.17169 -0.62916,-1.75754 z"
         id="rect4030-79-2"
         inkscape:connector-curvature="0" />
      <path
         style="color:#000000;fill:#2a1c0a;fill-opacity:1;fill-rule:evenodd;stroke:none;stroke-width:1;marker:none;visibility:visible;display:inline;overflow:visible;enable-background:accumulate"
         d="m 164.49724,132.36663 c 0.88689,-0.13454 1.77379,-0.26909 2.66069,-0.40363 0.20972,0.58585 0.41944,1.1717 0.62916,1.75754 -0.8869,0.13455 -1.7738,0.26909 -2.66069,0.40364 -0.20972,-0.58585 -0.41944,-1.1717 -0.62916,-1.75755 z"
         id="rect4030-242-5-5"
         inkscape:connector-curvature="0" />
      <path
         style="color:#000000;fill:#483119;fill-opacity:1;fill-rule:evenodd;stroke:none;stroke-width:1;marker:none;visibility:visible;display:inline;overflow:visible;enable-background:accumulate"
         d="m 160.63128,132.84312 c 0.8869,-0.13455 1.7738,-0.26909 2.6607,-0.40364 0.20972,0.58585 0.41944,1.1717 0.62916,1.75755 -0.8869,0.13454 -1.7738,0.26909 -2.6607,0.40363 -0.20972,-0.58585 -0.41944,-1.1717 -0.62916,-1.75754 z"
         id="rect4030-76-4"
         inkscape:connector-curvature="0" />
      <path
         style="color:#000000;fill:#2a1c0a;fill-opacity:1;fill-rule:evenodd;stroke:none;stroke-width:1;marker:none;visibility:visible;display:inline;overflow:visible;enable-background:accumulate"
         d="m 165.59253,135.03208 c 0.88689,-0.13455 1.77379,-0.26909 2.66069,-0.40364 0.20972,0.58585 0.41944,1.1717 0.62916,1.75755 -0.8869,0.13454 -1.7738,0.26909 -2.66069,0.40363 -0.20972,-0.58584 -0.41944,-1.17169 -0.62916,-1.75754 z"
         id="rect4030-47-9-4"
         inkscape:connector-curvature="0" />
      <path
         style="color:#000000;fill:#483119;fill-opacity:1;fill-rule:evenodd;stroke:none;stroke-width:1;marker:none;visibility:visible;display:inline;overflow:visible;enable-background:accumulate"
         d="m 144.98545,136.34591 c 0.8869,-0.13454 1.7738,-0.26909 2.6607,-0.40363 0.20972,0.58585 0.41944,1.17169 0.62916,1.75754 -0.8869,0.13455 -1.7738,0.26909 -2.6607,0.40364 -0.20972,-0.58585 -0.41944,-1.1717 -0.62916,-1.75755 z"
         id="rect4030-26-99"
         inkscape:connector-curvature="0" />
      <path
         style="color:#000000;fill:#2a1c0a;fill-opacity:1;fill-rule:evenodd;stroke:none;stroke-width:1;marker:none;visibility:visible;display:inline;overflow:visible;enable-background:accumulate"
         d="m 167.75316,129.76567 c 0.8869,-0.13454 1.7738,-0.26909 2.66069,-0.40363 0.20972,0.58584 0.41944,1.17169 0.62916,1.75754 -0.88689,0.13455 -1.77379,0.26909 -2.66069,0.40364 -0.20972,-0.58585 -0.41944,-1.1717 -0.62916,-1.75755 z"
         id="rect4030-23-8-3"
         inkscape:connector-curvature="0" />
      <path
         style="color:#000000;fill:#483119;fill-opacity:1;fill-rule:evenodd;stroke:none;stroke-width:1;marker:none;visibility:visible;display:inline;overflow:visible;enable-background:accumulate"
         d="m 163.98851,129.29472 c 0.8869,-0.13454 1.7738,-0.26909 2.6607,-0.40363 0.20972,0.58584 0.41944,1.17169 0.62916,1.75754 -0.8869,0.13455 -1.7738,0.26909 -2.6607,0.40364 -0.20972,-0.58585 -0.41944,-1.1717 -0.62916,-1.75755 z"
         id="rect4030-50-6"
         inkscape:connector-curvature="0" />
      <path
         style="color:#000000;fill:#2a1c0a;fill-opacity:1;fill-rule:evenodd;stroke:none;stroke-width:1;marker:none;visibility:visible;display:inline;overflow:visible;enable-background:accumulate"
         d="m 169.18652,132.53567 c 0.8869,-0.13455 1.7738,-0.26909 2.6607,-0.40364 0.20972,0.58585 0.41944,1.1717 0.62916,1.75755 -0.8869,0.13454 -1.7738,0.26909 -2.6607,0.40363 -0.20972,-0.58584 -0.41944,-1.17169 -0.62916,-1.75754 z"
         id="rect4030-9-3-0"
         inkscape:connector-curvature="0" />
      <path
         style="color:#000000;fill:#483119;fill-opacity:1;fill-rule:evenodd;stroke:none;stroke-width:1;marker:none;visibility:visible;display:inline;overflow:visible;enable-background:accumulate"
         d="m 164.85028,131.93575 c 0.8869,-0.13455 1.7738,-0.26909 2.6607,-0.40364 0.20972,0.58585 0.41944,1.1717 0.62916,1.75755 -0.8869,0.13454 -1.7738,0.26909 -2.6607,0.40363 -0.20972,-0.58584 -0.41944,-1.17169 -0.62916,-1.75754 z"
         id="rect4030-242-50"
         inkscape:connector-curvature="0" />
      <path
         style="color:#000000;fill:#2a1c0a;fill-opacity:1;fill-rule:evenodd;stroke:none;stroke-width:1;marker:none;visibility:visible;display:inline;overflow:visible;enable-background:accumulate"
         d="m 170.09389,135.15552 c 0.8869,-0.13455 1.7738,-0.26909 2.6607,-0.40364 0.20972,0.58585 0.41944,1.1717 0.62916,1.75755 -0.8869,0.13454 -1.7738,0.26909 -2.6607,0.40363 -0.20972,-0.58585 -0.41944,-1.1717 -0.62916,-1.75754 z"
         id="rect4030-71-2-2"
         inkscape:connector-curvature="0" />
      <path
         style="color:#000000;fill:#483119;fill-opacity:1;fill-rule:evenodd;stroke:none;stroke-width:1;marker:none;visibility:visible;display:inline;overflow:visible;enable-background:accumulate"
         d="m 165.94557,134.60119 c 0.8869,-0.13454 1.7738,-0.26909 2.6607,-0.40363 0.20972,0.58585 0.41944,1.17169 0.62916,1.75754 -0.8869,0.13455 -1.7738,0.26909 -2.6607,0.40364 -0.20972,-0.58585 -0.41944,-1.1717 -0.62916,-1.75755 z"
         id="rect4030-47-94"
         inkscape:connector-curvature="0" />
      <path
         style="color:#000000;fill:#2a1c0a;fill-opacity:1;fill-rule:evenodd;stroke:none;stroke-width:1;marker:none;visibility:visible;display:inline;overflow:visible;enable-background:accumulate"
         d="m 171.78195,129.07847 c 0.8869,-0.13455 1.7738,-0.26909 2.66069,-0.40364 0.20972,0.58585 0.41944,1.1717 0.62916,1.75755 -0.88689,0.13454 -1.77379,0.26909 -2.66069,0.40363 -0.20972,-0.58584 -0.41944,-1.17169 -0.62916,-1.75754 z"
         id="rect4030-407-6-3"
         inkscape:connector-curvature="0" />
      <path
         style="color:#000000;fill:#483119;fill-opacity:1;fill-rule:evenodd;stroke:none;stroke-width:1;marker:none;visibility:visible;display:inline;overflow:visible;enable-background:accumulate"
         d="m 168.1062,129.33479 c 0.8869,-0.13455 1.7738,-0.26909 2.6607,-0.40364 0.20972,0.58585 0.41944,1.1717 0.62916,1.75755 -0.8869,0.13454 -1.7738,0.26909 -2.6607,0.40363 -0.20972,-0.58585 -0.41944,-1.1717 -0.62916,-1.75754 z"
         id="rect4030-23-5"
         inkscape:connector-curvature="0" />
      <path
         style="color:#000000;fill:#2a1c0a;fill-opacity:1;fill-rule:evenodd;stroke:none;stroke-width:1;marker:none;visibility:visible;display:inline;overflow:visible;enable-background:accumulate"
         d="m 172.82058,131.82958 c 0.8869,-0.13455 1.7738,-0.26909 2.66069,-0.40364 0.20972,0.58585 0.41944,1.1717 0.62916,1.75755 -0.88689,0.13454 -1.77379,0.26909 -2.66069,0.40363 -0.20972,-0.58585 -0.41944,-1.17169 -0.62916,-1.75754 z"
         id="rect4030-257-0-1"
         inkscape:connector-curvature="0" />
      <path
         style="color:#000000;fill:#483119;fill-opacity:1;fill-rule:evenodd;stroke:none;stroke-width:1;marker:none;visibility:visible;display:inline;overflow:visible;enable-background:accumulate"
         d="m 169.53957,132.10478 c 0.88689,-0.13454 1.77379,-0.26909 2.66069,-0.40363 0.20972,0.58584 0.41944,1.17169 0.62916,1.75754 -0.8869,0.13455 -1.7738,0.26909 -2.66069,0.40364 -0.20972,-0.58585 -0.41944,-1.1717 -0.62916,-1.75755 z"
         id="rect4030-9-7"
         inkscape:connector-curvature="0" />
      <path
         style="color:#000000;fill:#2a1c0a;fill-opacity:1;fill-rule:evenodd;stroke:none;stroke-width:1;marker:none;visibility:visible;display:inline;overflow:visible;enable-background:accumulate"
         d="m 174.49299,134.70966 c 0.8869,-0.13455 1.7738,-0.2691 2.6607,-0.40364 0.20972,0.58585 0.41944,1.1717 0.62916,1.75754 -0.8869,0.13455 -1.7738,0.2691 -2.6607,0.40364 -0.20972,-0.58585 -0.41944,-1.1717 -0.62916,-1.75754 z"
         id="rect4030-90-9-4"
         inkscape:connector-curvature="0" />
      <path
         style="color:#000000;fill:#483119;fill-opacity:1;fill-rule:evenodd;stroke:none;stroke-width:1;marker:none;visibility:visible;display:inline;overflow:visible;enable-background:accumulate"
         d="m 170.44693,134.72463 c 0.8869,-0.13454 1.7738,-0.26909 2.6607,-0.40364 0.20972,0.58585 0.41944,1.1717 0.62916,1.75755 -0.8869,0.13454 -1.7738,0.26909 -2.6607,0.40364 -0.20972,-0.58585 -0.41944,-1.1717 -0.62916,-1.75755 z"
         id="rect4030-71-3"
         inkscape:connector-curvature="0" />
      <path
         style="color:#000000;fill:#483119;fill-opacity:1;fill-rule:evenodd;stroke:none;stroke-width:1;marker:none;visibility:visible;display:inline;overflow:visible;enable-background:accumulate"
         d="m 172.13499,128.64758 c 0.8869,-0.13454 1.7738,-0.26909 2.6607,-0.40363 0.20972,0.58585 0.41944,1.17169 0.62916,1.75754 -0.8869,0.13455 -1.7738,0.26909 -2.6607,0.40364 -0.20972,-0.58585 -0.41944,-1.1717 -0.62916,-1.75755 z"
         id="rect4030-407-1"
         inkscape:connector-curvature="0" />
      <path
         style="color:#000000;fill:#483119;fill-opacity:1;fill-rule:evenodd;stroke:none;stroke-width:1;marker:none;visibility:visible;display:inline;overflow:visible;enable-background:accumulate"
         d="m 173.17362,131.39869 c 0.8869,-0.13454 1.7738,-0.26909 2.6607,-0.40363 0.20972,0.58584 0.41944,1.17169 0.62916,1.75754 -0.8869,0.13455 -1.7738,0.26909 -2.6607,0.40364 -0.20972,-0.58585 -0.41944,-1.1717 -0.62916,-1.75755 z"
         id="rect4030-257-4"
         inkscape:connector-curvature="0" />
      <path
         style="color:#000000;fill:#483119;fill-opacity:1;fill-rule:evenodd;stroke:none;stroke-width:1;marker:none;visibility:visible;display:inline;overflow:visible;enable-background:accumulate"
         d="m 174.84604,134.27877 c 0.8869,-0.13455 1.7738,-0.26909 2.66069,-0.40364 0.20972,0.58585 0.41944,1.1717 0.62916,1.75755 -0.88689,0.13454 -1.77379,0.26909 -2.66069,0.40363 -0.20972,-0.58584 -0.41944,-1.17169 -0.62916,-1.75754 z"
         id="rect4030-90-6"
         inkscape:connector-curvature="0" />
      <path
         style="font-size:medium;font-style:normal;font-variant:normal;font-weight:normal;font-stretch:normal;text-indent:0;text-align:start;text-decoration:none;line-height:normal;letter-spacing:normal;word-spacing:normal;text-transform:none;direction:ltr;block-progression:tb;writing-mode:lr-tb;text-anchor:start;baseline-shift:baseline;color:#000000;fill:#87860d;fill-opacity:1;fill-rule:nonzero;stroke:#f4e3e3;stroke-width:0.05;stroke-miterlimit:4;stroke-opacity:1;stroke-dasharray:none;marker:none;visibility:visible;display:inline;overflow:visible;enable-background:accumulate;font-family:Sans;-inkscape-font-specification:Sans"
         d="m 175.10573,116.98664 c -3.48097,0.41858 -8.64016,0.96905 -13.84375,1.53125 l -5.75,0.15625 c -0.88124,0.0797 -1.42398,0.38822 -1.6875,0.84375 -0.26352,0.45552 -0.25285,1.0322 -0.21875,1.71875 l 0.0625,1.3125 c 0.019,0.38291 0.20379,0.72088 0.5625,0.9375 0.35871,0.21661 0.85821,0.30851 1.53125,0.25 l 5.1875,-0.4375 c 3.68161,0.16575 9.66432,-0.86352 14.46875,-1.28125 0.85875,-0.0747 1.33571,-0.12039 1.65625,-0.375 0.16027,-0.12731 0.26579,-0.30846 0.3125,-0.53125 0.0467,-0.2228 0.0395,-0.46802 0.0312,-0.8125 l -0.0312,-1.65625 c -0.008,-0.34705 -0.0217,-0.6317 -0.0937,-0.875 -0.072,-0.2433 -0.19217,-0.45405 -0.375,-0.59375 -0.36567,-0.27941 -0.94641,-0.29165 -1.8125,-0.1875 z m 0.0625,0.28125 c 0.8433,-0.10141 1.30735,-0.0387 1.5625,0.15625 0.12757,0.0975 0.22119,0.23455 0.28125,0.4375 0.0601,0.20294 0.0858,0.44693 0.0937,0.78125 l 0.0312,1.65625 c 0.008,0.33687 0.007,0.60073 -0.0312,0.78125 -0.0378,0.18051 -0.084,0.26157 -0.1875,0.34375 -0.20691,0.16435 -0.67602,0.23813 -1.53125,0.3125 -4.82342,0.41938 -10.82254,1.41275 -14.4375,1.25 l -5.1875,0.46875 c -0.63327,0.0551 -1.08939,-0.0463 -1.375,-0.21875 -0.28561,-0.17248 -0.42261,-0.41906 -0.4375,-0.71875 l -0.0625,-1.3125 c -0.0335,-0.67499 -0.0213,-1.20154 0.1875,-1.5625 0.20882,-0.36097 0.60402,-0.5809 1.4375,-0.65625 l 5.75,-0.1875 0.0312,0 c 5.20361,-0.5622 10.39064,-1.11227 13.875,-1.53125 z"
         id="rect6563-9"
         inkscape:connector-curvature="0" />
      <path
         style="fill:none;stroke:#2e3436;stroke-width:2.33209443px;stroke-linecap:butt;stroke-linejoin:miter;stroke-opacity:1"
         d="m 186.01903,136.33105 0.0965,2.54269 -0.0166,0.0318"
         id="path6557-4"
         inkscape:connector-curvature="0" />
      <path
         style="font-size:medium;font-style:normal;font-variant:normal;font-weight:normal;font-stretch:normal;text-indent:0;text-align:start;text-decoration:none;line-height:normal;letter-spacing:normal;word-spacing:normal;text-transform:none;direction:ltr;block-progression:tb;writing-mode:lr-tb;text-anchor:start;baseline-shift:baseline;color:#000000;fill:#2e3436;fill-opacity:1;stroke:#2e3436;stroke-width:0.05;stroke-miterlimit:4;stroke-opacity:1;stroke-dasharray:none;marker:none;visibility:visible;display:inline;overflow:visible;enable-background:accumulate;font-family:Sans;-inkscape-font-specification:Sans"
         d="m 175.69948,119.33039 -19.8125,1.65625 c -0.0329,0.004 -0.065,0.0148 -0.0937,0.0312 -0.0222,0.007 -0.0433,0.018 -0.0625,0.0312 -0.0757,0.0689 -0.10192,0.18679 -0.0625,0.28125 0.007,0.0222 0.018,0.0433 0.0312,0.0625 0.01,0.0113 0.0199,0.0218 0.0312,0.0312 0.0506,0.0451 0.12001,0.0682 0.1875,0.0625 8.77645,-0.31136 11.49336,-0.56856 19.8125,-1.6875 0.0309,0.006 0.0629,0.006 0.0937,0 0.0549,-0.0248 0.10022,-0.0701 0.125,-0.125 0.021,-0.038 0.0319,-0.0816 0.0312,-0.125 -0.004,-0.0329 -0.0147,-0.065 -0.0312,-0.0937 -0.0248,-0.0549 -0.0701,-0.10022 -0.125,-0.125 -0.0408,-0.0105 -0.0842,-0.0105 -0.125,0 z"
         id="path4341-2"
         inkscape:connector-curvature="0"
         sodipodi:nodetypes="ccccccccccccccc" />
      <path
         transform="matrix(0.50150011,0.86515758,-0.86515758,0.50150011,126.80595,76.543715)"
         style="color:#000000;fill:#f8f4e5;fill-opacity:1;fill-rule:evenodd;stroke:none;stroke-width:0.5;marker:none;visibility:visible;display:inline;overflow:visible;filter:url(#filter4011);enable-background:accumulate"
         inkscape:transform-center-x="-0.038088857"
         inkscape:transform-center-y="1.8548371"
         d="m 44.066927,28.677394 -8.696272,-4.556259 -12.227312,2.39656 12.092858,-3.077916 24.36948,-50.50213 -23.569973,50.61429 z"
         id="path4008-2"
         inkscape:connector-curvature="0"
         sodipodi:nodetypes="ccccccc" />
    </g>
    <g
       id="g4408"
       transform="matrix(0.65273414,0,0,0.65273414,220.86601,76.62183)"
       style="fill:#a7c609;fill-opacity:1">
      <text
         sodipodi:linespacing="125%"
         id="text4394"
         y="175.39832"
         x="-254.35803"
         style="font-size:31.35623932px;font-style:normal;font-variant:normal;font-weight:bold;font-stretch:normal;line-height:125%;letter-spacing:0px;word-spacing:0px;fill:#a7c609;fill-opacity:1;stroke:none;font-family:Ubuntu;-inkscape-font-specification:Sans Bold"
         xml:space="preserve"><tspan
           y="175.39832"
           x="-254.35803"
           id="tspan4396"
           sodipodi:role="line" /><tspan
           style="font-size:20.90415955px;fill:#a7c609;fill-opacity:1"
           id="tspan4398"
           y="203.99599"
           x="-254.35803"
           sodipodi:role="line">Internet solidari</tspan></text>
      <text
         sodipodi:linespacing="125%"
         id="text4400"
         y="177.20659"
         x="-254.35191"
         style="font-size:30.82761765px;font-style:normal;font-variant:normal;font-weight:bold;font-stretch:normal;line-height:125%;letter-spacing:0px;word-spacing:0px;fill:#a7c609;fill-opacity:1;stroke:none;font-family:Ubuntu;-inkscape-font-specification:Sans Bold"
         xml:space="preserve"><tspan
           y="177.20659"
           x="-254.35191"
           id="tspan4402"
           sodipodi:role="line">Pangea.org</tspan></text>
    </g>
  </g>
</svg>
