<?xml version="1.0" encoding="UTF-8" standalone="no"?>
<!-- Created with Inkscape (http://www.inkscape.org/) -->

<svg
   xmlns:dc="http://purl.org/dc/elements/1.1/"
   xmlns:cc="http://creativecommons.org/ns#"
   xmlns:rdf="http://www.w3.org/1999/02/22-rdf-syntax-ns#"
   xmlns:svg="http://www.w3.org/2000/svg"
   xmlns="http://www.w3.org/2000/svg"
   xmlns:sodipodi="http://sodipodi.sourceforge.net/DTD/sodipodi-0.dtd"
   xmlns:inkscape="http://www.inkscape.org/namespaces/inkscape"
   width="452"
   height="432"
   id="svg2"
   version="1.1"
   inkscape:version="0.48.0 r9654"
   sodipodi:docname="Documento nuevo 1">
  <defs
     id="defs4" />
  <sodipodi:namedview
     id="base"
     pagecolor="#ffffff"
     bordercolor="#666666"
     borderopacity="1.0"
     inkscape:pageopacity="0.0"
     inkscape:pageshadow="2"
     inkscape:zoom="0.7"
     inkscape:cx="104.86026"
     inkscape:cy="203.19945"
     inkscape:document-units="px"
     inkscape:current-layer="layer1"
     showgrid="false"
     fit-margin-top="0"
     fit-margin-left="0"
     fit-margin-right="0"
     fit-margin-bottom="0"
     inkscape:window-width="1280"
     inkscape:window-height="753"
     inkscape:window-x="-4"
     inkscape:window-y="-4"
     inkscape:window-maximized="1" />
  <metadata
     id="metadata7">
    <rdf:RDF>
      <cc:Work
         rdf:about="">
        <dc:format>image/svg+xml</dc:format>
        <dc:type
           rdf:resource="http://purl.org/dc/dcmitype/StillImage" />
        <dc:title></dc:title>
      </cc:Work>
    </rdf:RDF>
  </metadata>
  <g
     inkscape:label="Capa 1"
     inkscape:groupmode="layer"
     id="layer1"
     transform="translate(-499.71429,-504.93362)">
    <path
       style="opacity:0.64583333;fill:#007faf;fill-opacity:1;stroke:#628c8c;stroke-width:0.5;stroke-linejoin:miter;stroke-miterlimit:4;stroke-opacity:1;stroke-dasharray:none"
       d="M 218.9375 11.625 C 107.29709 11.625 16.78125 102.14084 16.78125 213.78125 C 16.78125 325.42166 107.29709 415.90625 218.9375 415.90625 C 330.57791 415.90625 421.0625 325.42166 421.0625 213.78125 C 421.0625 102.14084 330.57791 11.625 218.9375 11.625 z M 150.375 69.5 C 166.94354 69.5 180.375 82.93146 180.375 99.5 C 180.375 116.06854 166.94354 129.5 150.375 129.5 C 133.80646 129.5 120.375 116.06854 120.375 99.5 C 120.375 82.93146 133.80646 69.5 150.375 69.5 z M 220.375 69.5 C 236.94354 69.5 250.375 82.93146 250.375 99.5 C 250.375 116.06854 236.94354 129.5 220.375 129.5 C 203.80646 129.5 190.375 116.06854 190.375 99.5 C 190.375 82.93146 203.80646 69.5 220.375 69.5 z M 288.375 69.5 C 304.94354 69.5 318.375 82.93146 318.375 99.5 C 318.375 116.06854 304.94354 129.5 288.375 129.5 C 271.80646 129.5 258.375 116.06854 258.375 99.5 C 258.375 82.93146 271.80646 69.5 288.375 69.5 z M 151.0625 137.5 C 167.63104 137.5 181.0625 150.93146 181.0625 167.5 C 181.0625 184.06854 167.63104 197.5 151.0625 197.5 C 134.49396 197.5 121.0625 184.06854 121.0625 167.5 C 121.0625 150.93146 134.49396 137.5 151.0625 137.5 z M 221.0625 137.5 C 237.63104 137.5 251.0625 150.93146 251.0625 167.5 C 251.0625 184.06854 237.63104 197.5 221.0625 197.5 C 204.49396 197.5 191.0625 184.06854 191.0625 167.5 C 191.0625 150.93146 204.49396 137.5 221.0625 137.5 z M 289.0625 137.5 C 305.63104 137.5 319.0625 150.93146 319.0625 167.5 C 319.0625 184.06854 305.63104 197.5 289.0625 197.5 C 272.49396 197.5 259.0625 184.06854 259.0625 167.5 C 259.0625 150.93146 272.49396 137.5 289.0625 137.5 z M 150.375 206.625 C 166.94354 206.625 180.375 220.05646 180.375 236.625 C 180.375 253.19354 166.94354 266.625 150.375 266.625 C 133.80646 266.625 120.375 253.19354 120.375 236.625 C 120.375 220.05646 133.80646 206.625 150.375 206.625 z M 220.375 206.625 C 236.94354 206.625 250.375 220.05646 250.375 236.625 C 250.375 253.19354 236.94354 266.625 220.375 266.625 C 203.80646 266.625 190.375 253.19354 190.375 236.625 C 190.375 220.05646 203.80646 206.625 220.375 206.625 z M 288.375 206.625 C 304.94354 206.625 318.375 220.05646 318.375 236.625 C 318.375 253.19354 304.94354 266.625 288.375 266.625 C 271.80646 266.625 258.375 253.19354 258.375 236.625 C 258.375 220.05646 271.80646 206.625 288.375 206.625 z M 295 285.9375 C 301.07704 285.9375 306.78607 287.45565 311.78125 290.15625 L 311.78125 309.09375 C 308.58374 305.62836 304.02446 303.4375 298.9375 303.4375 C 289.27252 303.4375 281.4375 311.27252 281.4375 320.9375 C 281.4375 330.60248 289.27252 338.4375 298.9375 338.4375 C 304.02446 338.4375 308.58374 336.24664 311.78125 332.78125 L 311.78125 352.40625 C 306.78607 355.10685 301.07704 356.65625 295 356.65625 C 275.47279 356.65625 259.65625 340.80846 259.65625 321.28125 C 259.65625 301.75404 275.47279 285.9375 295 285.9375 z M 201.03125 287.875 L 210 288 L 210 287.90625 L 237.15625 287.90625 L 237.15625 288.125 C 237.58935 288.0799 238.02355 288.0625 238.46875 288.0625 C 245.42165 288.0625 251.0625 293.70338 251.0625 300.65625 C 251.0625 301.16817 251.02775 301.66018 250.96875 302.15625 L 250.96875 317.375 C 251.05995 318.01138 251.3407 318.68675 251.125 319.3125 C 248.9975 325.48527 242.7816 331.49132 237.5625 332.90625 C 237.3672 332.95925 237.16895 332.884 236.96875 332.875 L 236.96875 333.03125 L 219.1875 333.03125 L 219.1875 355.21875 L 201.03125 355.21875 L 201.03125 287.875 z M 127.84375 287.90625 L 148.125 287.90625 L 148.125 332.46875 L 148.1875 332.46875 C 148.1711 332.64351 148.15625 332.82521 148.15625 333 C 148.15625 336.78091 152.34188 339.84375 157.53125 339.84375 C 162.72062 339.84375 166.9375 336.78091 166.9375 333 C 166.9375 332.82483 166.8983 332.64375 166.875 332.46875 C 166.871 332.43825 166.879 332.4049 166.875 332.375 L 166.875 288.09375 L 187.3125 288.09375 L 187.3125 338 L 186.40625 338 C 186.17183 348.36365 173.16381 356.71875 157.1875 356.71875 C 141.16248 356.71875 128.15656 348.31374 128 337.90625 L 127.84375 337.90625 L 127.84375 287.90625 z M 219.1875 303.0625 L 219.1875 317.84375 L 224.0625 317.84375 C 224.0735 317.73897 224.07975 317.6356 224.09375 317.53125 C 224.41215 317.66178 224.75095 317.77185 225.09375 317.84375 L 227.59375 317.84375 C 230.72015 317.21473 233.09375 314.16126 233.09375 310.46875 C 233.09375 306.77624 230.72015 303.69697 227.59375 303.0625 L 219.1875 303.0625 z "
       transform="translate(499.71429,504.93362)"
       id="path3045" />
  </g>
</svg>
