<?xml version="1.0" encoding="utf-8"?>
<!-- Generator: Adobe Illustrator 14.0.0, SVG Export Plug-In . SVG Version: 6.00 Build 43363)  -->
<!DOCTYPE svg PUBLIC "-//W3C//DTD SVG 1.1//EN" "http://www.w3.org/Graphics/SVG/1.1/DTD/svg11.dtd">
<svg version="1.1" id="Layer_1" xmlns="http://www.w3.org/2000/svg" xmlns:xlink="http://www.w3.org/1999/xlink" x="0px" y="0px"
	 width="351px" height="350px" viewBox="0 0 351 350" enable-background="new 0 0 351 350" xml:space="preserve">
<g>
	<ellipse fill="none" stroke="#0083CA" stroke-width="20" cx="175.5" cy="175" rx="165.5" ry="165"/>
	<path fill-rule="evenodd" clip-rule="evenodd" fill="#0083CA" d="M46.459,133.89h32.046l3.513,0.146l3.365,0.295l3.22,0.73
		l3.073,0.731l2.78,1.171l2.634,1.171l2.488,1.464l2.341,1.609l2.049,1.757l2.048,1.9l1.756,2.05l1.608,2.195l1.317,2.341
		l1.317,2.341l1.024,2.488l0.878,2.487l45.509-29.267l16.535,11.122l-35.413,22.827l5.707,3.806l35.704-22.682l15.366,10.243
		l-35.266,23.266l5.999,3.658l35.85-22.827V133.89h26.341v49.9h23.413v23.412H203.91v-23.998l-44.337,28.535l-45.216-30.584
		l-0.878,2.635l-0.878,2.487l-1.316,2.487l-1.317,2.486l-1.61,2.196l-1.756,2.193l-1.902,2.05l-2.195,1.756l-2.195,1.757
		l-2.635,1.462l-2.633,1.318l-2.927,1.17l-3.073,0.878l-3.219,0.585l-3.365,0.438l-3.659,0.147H46.459V133.89L46.459,133.89
		L46.459,133.89L46.459,133.89z M71.628,156.864h6.877l3.074,0.293l2.487,0.878l2.195,1.316l1.902,1.757l1.317,2.048l1.024,2.194
		l0.584,2.487l0.146,2.488l-0.146,2.487l-0.584,2.488l-1.024,2.194l-1.464,2.049l-1.755,1.757l-2.195,1.316l-2.634,0.879
		l-2.927,0.293h-6.877V156.864L71.628,156.864L71.628,156.864L71.628,156.864z M260.248,133.89h26.487v49.9H310v23.412h-49.752
		V133.89L260.248,133.89L260.248,133.89L260.248,133.89z"/>
</g>
</svg>
