<?xml version="1.0" encoding="UTF-8" standalone="no"?>
<!-- Created with Inkscape (http://www.inkscape.org/) -->

<svg
   xmlns:dc="http://purl.org/dc/elements/1.1/"
   xmlns:cc="http://creativecommons.org/ns#"
   xmlns:rdf="http://www.w3.org/1999/02/22-rdf-syntax-ns#"
   xmlns:svg="http://www.w3.org/2000/svg"
   xmlns="http://www.w3.org/2000/svg"
   xmlns:sodipodi="http://sodipodi.sourceforge.net/DTD/sodipodi-0.dtd"
   xmlns:inkscape="http://www.inkscape.org/namespaces/inkscape"
   width="744.09448819"
   height="1052.3622047"
   id="svg2"
   version="1.1"
   inkscape:version="0.48.3.1 r9886"
   sodipodi:docname="New document 1.2012_07_10_14_45_42.0.svg">
  <defs
     id="defs4" />
  <sodipodi:namedview
     id="base"
     pagecolor="#ffffff"
     bordercolor="#666666"
     borderopacity="1.0"
     inkscape:pageopacity="0.0"
     inkscape:pageshadow="2"
     inkscape:zoom="0.49497475"
     inkscape:cx="819.59149"
     inkscape:cy="544.64172"
     inkscape:document-units="px"
     inkscape:current-layer="layer1"
     showgrid="false"
     inkscape:window-width="1920"
     inkscape:window-height="1024"
     inkscape:window-x="0"
     inkscape:window-y="27"
     inkscape:window-maximized="1"
     showguides="true"
     inkscape:guide-bbox="true" />
  <metadata
     id="metadata7">
    <rdf:RDF>
      <cc:Work
         rdf:about="">
        <dc:format>image/svg+xml</dc:format>
        <dc:type
           rdf:resource="http://purl.org/dc/dcmitype/StillImage" />
        <dc:title></dc:title>
      </cc:Work>
    </rdf:RDF>
  </metadata>
  <g
     inkscape:label="Layer 1"
     inkscape:groupmode="layer"
     id="layer1">
    <path
       style="fill:#97c200;fill-opacity:1;stroke:none"
       d="m 159.75475,96.977691 c -48.34692,0 -88.110349,35.385829 -95.07938,81.729699 l 28.330977,0 C 98.632785,151.0592 118.82884,126.7879 151.59662,123.52873 l 135.87006,0 0,141.50659 -135.87006,0 C 115.60076,259.76091 96.401651,234.42238 92.264712,206.59338 l -28.034327,0 c 5.392467,48.10936 45.928445,85.28963 95.524365,85.28963 l 458.48732,0 c 35.39395,0 66.19157,-18.9723 82.91634,-47.3172 l -62.7435,0 0,-39.15905 c -6.40443,29.39758 -27.03364,54.84042 -52.21208,59.48022 l -25.06772,0 0,-1.18664 -111.09901,0 c -14.28859,-10.63664 -11.60711,-20.09688 0,-28.47931 l 79.94976,0 0,-8.30647 -101.01257,0 c -18.25904,-9.60612 -15.01325,-19.31818 0,-28.9243 l 85.2896,0 c 1.35354,3.46859 3.31443,6.37136 6.08153,8.45481 6.51739,4.90717 15.95094,4.80901 26.10605,0.59332 0.66113,-0.26818 1.23798,-0.74 1.63162,-1.33498 l 23.73277,-37.08243 c 1.26723,-1.54254 0.8631,-4.15714 -0.81067,-5.24514 -1.67377,-1.08796 -4.22733,-0.39586 -5.12254,1.38856 l -22.99111,35.74746 c -8.35871,3.27628 -14.52412,2.94986 -18.24456,0.14813 -1.86524,-1.40442 -3.36602,-3.64018 -4.30156,-6.67485 l 0,-3.11492 -0.74164,0 c -0.37831,-2.45336 -0.43289,-5.288 -0.14812,-8.60314 l 14.38799,-22.39779 0.88997,0 0,-1.48329 22.8428,-35.74748 c 0.0507,-0.048 0.10015,-0.0972 0.14812,-0.14812 1.18233,-2.05208 6.5333,-5.99576 7.22577,-6.22986 l 21.25354,0 c 32.01445,12.54337 47.15326,32.39133 52.21208,53.54704 l 0,-29.51762 60.2219,0 C 681.44486,114.18885 651.93393,96.97767 618.24209,96.97767 z m 287.90809,25.512729 101.6059,0 -20.46952,31.89088 -81.13638,0 c -17.84633,-11.32117 -14.08938,-21.83902 0,-31.89088 z m -151.29637,22.24946 76.68648,0 0,99.08429 -76.68648,0 z m -84.39963,14.53632 c -4.06031,0 -7.40487,2.71835 -8.60315,6.37818 l -16.76125,0 -1.03831,0 -0.59332,0.74165 -25.51273,26.4027 -13.34966,0 c -1.13177,-7.30852 -7.35569,-12.9047 -14.98131,-12.9047 -8.42609,0 -15.27797,6.85188 -15.27797,15.27796 0,8.42609 6.85188,15.27797 15.27797,15.27797 7.62562,0 13.84954,-5.59618 14.98131,-12.90468 l 14.98129,0 0.14813,0.14812 0.14812,-0.14812 21.06284,0 23.43609,25.36439 0.59332,0.74164 1.03831,0 18.98622,0 0,5.63653 16.46461,0 0,-16.4646 -16.46461,0 0,6.08152 -17.94791,0 -19.72786,-21.35948 66.00675,0 0,8.0098 9.04813,-5.19153 8.89979,-5.19156 -8.89979,-5.19153 -9.04813,-5.19155 0,8.00982 -88.84953,0 21.50782,-22.39781 15.57461,0 c 0.90437,4.10454 4.52352,7.26816 8.89979,7.26816 5.05566,0 9.19647,-4.14079 9.19647,-9.19644 0,-5.05565 -4.14081,-9.19644 -9.19647,-9.19644 z m 208.10666,0.5933 105.1658,0 -12.31136,19.28288 c -0.27578,0.49781 -0.43005,1.06267 -0.44476,1.63162 -0.37498,3.61204 -0.35314,7.01536 0,10.08643 l -92.40945,0 c -21.31206,-9.63359 -14.14491,-25.34266 0,-31.00093 z m -93.59609,2.96661 0,19.57952 18.98622,0 0,-19.57952 z m 346.05335,2.07661 c -4.63414,0 -8.30647,3.8207 -8.30647,8.4548 0,4.63415 3.67233,8.30647 8.30647,8.30647 4.63417,0 8.45481,-3.67232 8.45481,-8.30647 0,-4.6341 -3.82064,-8.4548 -8.45481,-8.4548 z m -102.6442,18.68955 c -2.58307,0.42862 -3.98344,4.01644 -2.37328,6.08152 10.53013,14.10923 23.77634,20.69896 37.23079,21.21117 12.44004,0.47371 22.69814,-4.07259 33.67084,-11.27307 l 0,-7.56481 c -10.62791,7.29814 -22.30675,11.69455 -33.37419,11.27305 -11.27867,-0.42956 -22.03996,-5.49319 -31.44592,-18.09623 -0.7968,-1.18071 -2.29941,-1.84189 -3.70824,-1.63163 z m -243.40915,22.10114 0,19.43121 18.98622,0 0,-19.43121 z m 346.05335,1.48329 c -4.63414,0 -8.30647,3.67237 -8.30647,8.30647 0,4.63417 3.67233,8.45481 8.30647,8.45481 4.63417,0 8.45481,-3.82064 8.45481,-8.45481 0,-4.6341 -3.82064,-8.30647 -8.45481,-8.30647 z"
       id="rect3826"
       inkscape:connector-curvature="0"
       sodipodi:nodetypes="sccccccccsscccccccccccccscccscccccccccccccccccsscccccccccccccccccsssccccccccccccccccccccccccccssscccccccccsccsscsscccccsccccsccsssssss" />
    <text
       xml:space="preserve"
       style="font-size:32.70907593px;font-style:normal;font-variant:normal;font-weight:bold;font-stretch:normal;line-height:125%;letter-spacing:0px;word-spacing:0px;fill:#97c200;fill-opacity:1;stroke:none;font-family:Ubuntu;-inkscape-font-specification:Ubuntu Bold"
       x="63.67215"
       y="334.73935"
       id="text3839"
       sodipodi:linespacing="125%"><tspan
         sodipodi:role="line"
         id="tspan3841"
         x="63.67215"
         y="334.73935">XARXA DE SUPORT A LA REUTILITZACIÓ</tspan></text>
  </g>
</svg>
